<?xml version="1.0" standalone="no"?>
<!DOCTYPE svg PUBLIC "-//W3C//DTD SVG 1.1//EN" "http://www.w3.org/Graphics/SVG/1.1/DTD/svg11.dtd" >
<svg xmlns="http://www.w3.org/2000/svg" xmlns:xlink="http://www.w3.org/1999/xlink" version="1.1">
<metadata></metadata>
<defs>
<font id="stabillomedium" horiz-adv-x="989" >
<font-face units-per-em="2048" ascent="1638" descent="-410" />
<missing-glyph horiz-adv-x="419" />
<glyph unicode="&#xfb01;" horiz-adv-x="878" d="M55 758q-4 41 16.5 80t49.5 36h53q14 166 49 240q63 133 222 159.5t280 -48t94 -189.5q-6 -25 -20.5 -45t-34 -34.5t-44 -21.5t-52.5 -9q-63 -2 -119.5 28.5t-59.5 98.5q35 8 34 40.5t-27 34.5q-33 4 -52.5 -21.5t-29.5 -76.5q-12 -59 -21 -158q74 -2 125 -4h10 q35 0 53.5 -1t53.5 -4t55.5 -11t42 -22.5t30.5 -39t7 -57.5q-16 -188 -14 -665q0 -55 -78 -56q-84 0 -129 51q-23 25 -21 54q-8 285 -10 518q0 84 -55 88q-43 2 -78 2q-14 -346 2 -657q0 -55 -78 -56q-84 0 -131 51q-20 25 -20 54q4 51 3 252.5t3 349.5q-31 0 -78 -4 q-27 2 -31 43z" />
<glyph horiz-adv-x="0" />
<glyph horiz-adv-x="0" />
<glyph horiz-adv-x="682" />
<glyph unicode="&#xa;" horiz-adv-x="0" />
<glyph unicode="&#xd;" horiz-adv-x="681" />
<glyph unicode=" "  horiz-adv-x="419" />
<glyph unicode="&#x09;" horiz-adv-x="419" />
<glyph unicode="&#xa0;" horiz-adv-x="419" />
<glyph unicode="!" horiz-adv-x="387" d="M45 61.5q2 51.5 48 85t107.5 30.5t102.5 -42t39 -89t-48 -84t-107.5 -31t-102.5 41t-39 89.5zM61 356q2 362 27 666q2 59 84 86q86 27 129 -10q18 -16 16 -41q-12 -248 -14 -384t6 -378q-2 -47 -66.5 -51t-126 30.5t-55.5 81.5z" />
<glyph unicode="&#x22;" horiz-adv-x="372" d="M21 1046.5q-4 59.5 16 92.5q18 33 57 32.5t58 -32.5q20 -33 16 -92.5t-14.5 -107.5t-20.5 -75q-10 -23 -19.5 -35t-19.5 -12t-19 12.5t-20 34.5q-10 27 -20 75t-14 107.5zM203 1046.5q-4 59.5 16 92.5q18 33 57 32.5t58 -32.5q20 -33 16 -92.5t-14 -107.5t-21 -75 q-18 -47 -38.5 -47t-38.5 47q-10 27 -20.5 75t-14.5 107.5z" />
<glyph unicode="#" horiz-adv-x="1042" d="M16 428q0 57 39 78q10 6 25 4q80 8 186 10q27 51 56 105q-90 -4 -158 -13q-41 -2 -41 52q0 57 39 77q10 6 22 4q92 8 213 13q66 117 129 219q23 49 101 47q68 -2 71 -39q2 -10 -4 -20q-72 -111 -133 -205q63 -2 127 -2q66 117 129 219q23 49 103 47q68 -2 71 -39l-6 -20 q-76 -115 -137 -213q49 -2 96 -7q43 4 68 -63q25 -68 -6 -90q-8 -4 -19 -6q-123 14 -227 22q-29 -47 -53 -92q68 -2 131 -6q43 4 67 -64q25 -68 -6 -90q-8 -6 -18 -6q-139 16 -254 25q-82 -150 -127 -262q-20 -29 -53 -27t-54.5 35t-1.5 65q39 88 94 197q-76 4 -143 6 q-86 -160 -133 -276q-20 -29 -53 -27t-54.5 35t-3.5 65q41 88 97 201q-76 -2 -138 -12q-41 0 -41 53zM418 522q68 2 139 0q27 47 53 96q-70 4 -131 7q-32 -52 -61 -103z" />
<glyph unicode="$" horiz-adv-x="657" d="M34 316.5q3 50.5 38 91.5q27 31 68.5 41t78.5 1.5t63.5 -35t22.5 -63.5q-49 -16 -62.5 -50t9.5 -52q33 -35 74 -15.5t55 66.5q12 45 -8.5 84t-62.5 66.5t-90 63.5t-89 72t-60.5 94t-4 128t73 123t132.5 65q2 31 4 58q-4 68 62 98q57 25 84 -12q8 -14 8 -35 q-2 -31 -8 -109q53 -8 95 -31.5t67.5 -54t36 -66.5t1 -73t-35.5 -70q-33 -39 -91.5 -45t-102.5 23t-38 80q31 10 48.5 27.5t18.5 35t-9.5 32.5t-28.5 22q-39 12 -69.5 -13.5t-37.5 -70.5q-6 -47 27 -89t83 -79t100.5 -77t81 -101.5t22.5 -135.5q-20 -164 -201 -196 q4 -55 8 -109q0 -55 -45 -57q-47 0 -73 51q-14 25 -13 55q-2 27 -2 54q-74 8 -128 39.5t-79.5 74.5t-22.5 93.5z" />
<glyph unicode="%" horiz-adv-x="786" d="M34 890.5q7 61.5 30.5 120t74 91t107.5 18.5q59 -14 89 -65t23.5 -113.5t-32 -120t-77.5 -90.5t-112 -18q-55 14 -82.5 65t-20.5 112.5zM57 119q178 401 506 936q25 57 117 55q76 -2 88 -41q2 -14 -6 -31q-184 -281 -339 -541.5t-235 -463.5q-25 -35 -63.5 -32t-64.5 41 t-3 77zM127 873.5q2 -54.5 27 -66.5q49 -18 79 63q31 88 7 142q-12 25 -37 22q-35 -2 -56.5 -54t-19.5 -106.5zM386 162.5q7 62.5 31.5 120t74 90t106.5 18.5q59 -14 89 -65.5t24 -113.5t-32 -119.5t-78 -89.5t-112 -17q-55 12 -82.5 63t-20.5 113.5zM479 144.5 q2 -54.5 29 -66.5q47 -18 78 63q31 88 6 142q-12 24 -35 22q-37 -2 -58.5 -54t-19.5 -106.5z" />
<glyph unicode="&#x26;" horiz-adv-x="886" d="M28 350q1 88 50 170t141 123q-68 61 -83 146t16.5 159t111.5 126t189 50q86 -2 153.5 -49t79.5 -131q16 -104 -70 -153q-66 -37 -122 -10.5t-45 83.5q53 -4 73.5 26t-1 61.5t-66.5 29.5q-84 -4 -121 -78q-37 -78 28.5 -136t210.5 -56q29 6 35 -33q8 -57 -24 -96 q-14 -14 -27 -17q-197 -6 -264 -69q-55 -51 -57.5 -141.5t53.5 -143.5q61 -49 126.5 -43t118 56t56.5 116q2 25 2 35q-37 4 -80 0q-29 -4 -46 -17.5t-24.5 -22.5t-17.5 -5q-55 27 -57 86t47 96q37 31 86 31q35 -4 85 -14.5t71.5 -12.5t82.5 2q29 2 46.5 15.5t24.5 22.5t17 5 q55 -27 58.5 -86t-45.5 -96q-39 -31 -86 -29q0 -6 -1 -13t-1 -11q-2 -109 -65.5 -192t-154 -121t-192.5 -30.5t-180 62.5q-63 49 -98 133t-34 172z" />
<glyph unicode="'" horiz-adv-x="227" d="M26.5 857q-10.5 13 8.5 46q47 86 -8 172q-31 47 16 90q51 45 111 11q23 -12 41 -37q23 -29 17.5 -75t-25 -90t-52.5 -80t-67 -42q-31 -8 -41.5 5z" />
<glyph unicode="(" horiz-adv-x="411" d="M49 700q25 340 164 496q94 104 221 84q29 -6 33 -22.5t-14 -36.5q-8 -8 -24.5 -21.5t-35 -32t-35.5 -39.5q-76 -102 -103.5 -319t0 -433.5t103.5 -320.5q20 -27 54 -55.5t41 -34.5q18 -20 14 -37.5t-33 -21.5q-195 -33 -305 217q-104 240 -80 577z" />
<glyph unicode=")" horiz-adv-x="411" d="M-55.5 -72.5q-3.5 17.5 14.5 37.5q6 6 40 35t54 55q74 104 102.5 320.5t0 433.5t-102.5 319q-20 29 -54 57.5t-40 35.5q-18 20 -14.5 36.5t32.5 22.5q195 31 306 -219q104 -240 79 -576q-25 -340 -163 -495q-94 -104 -222 -84q-29 4 -32.5 21.5z" />
<glyph unicode="*" horiz-adv-x="497" d="M20 1014q14 45 50 41q10 0 18 -8l32 -21q32 -22 57.5 -36.5t51.5 -20.5q0 27 -9 92t-9 88q-2 33 43 33q47 0 57 -35q2 -10 -2 -25l-14 -34q-14 -35 -21.5 -64t-7.5 -55q27 8 86.5 36.5t79.5 34.5q31 10 43 -30q16 -49 -18 -68q-8 -4 -21 -4l-37 3q-37 3 -65.5 1t-54.5 -8 q18 -20 66 -63.5t63 -59.5q25 -25 -15 -55q-43 -33 -67 -2q-6 6 -11 14q-2 6 -9 27.5t-14 39t-18.5 40t-25.5 38.5q-14 -23 -43 -83t-39 -76q-20 -33 -60 0q-43 33 -18 65l8 8q2 2 33 23.5t52.5 41t35.5 42.5q-27 6 -91.5 13t-86.5 11q-35 8 -19 56z" />
<glyph unicode="+" horiz-adv-x="669" d="M12 545q4 57 54 84q23 12 47 10q127 2 153 2q6 70 13 154q0 61 55 86q51 23 72 -17q6 -12 4 -30q-10 -143 -11 -199q80 -6 168 -12q61 0 86 -58q23 -51 -16 -69q-12 -6 -31 -7q-150 10 -205 13q8 -121 13 -213q-2 -51 -58 -47q-57 2 -86 51q-12 23 -10 49q-2 127 -2 156 q-104 -6 -197 -11q-51 2 -49 58z" />
<glyph unicode="," horiz-adv-x="284" d="M11 58.5q-1 43.5 31 80.5t87 37q72 2 107.5 -38t33.5 -103q-2 -57 -51 -134t-100 -104q-41 -20 -49.5 -9t14.5 62q23 47 25 73t-7.5 31t-30 13t-30.5 19q-29 29 -30 72.5z" />
<glyph unicode="-" horiz-adv-x="567" d="M8 543q4 57 53 86q23 12 48 10l356 -18q61 0 86 -56q23 -51 -16 -71q-12 -6 -29 -5l-449 -4q-51 2 -49 58z" />
<glyph unicode="." horiz-adv-x="294" d="M12 61.5q2 51.5 44 85t98.5 30.5t94.5 -42t35 -89t-44 -84t-97.5 -31t-94.5 41t-36 89.5z" />
<glyph unicode="/" horiz-adv-x="862" d="M59 86q2 16 13 33q86 193 247 484.5t302 520.5q25 57 104 58q68 0 76 -41q4 -14 -6 -31q-475 -723 -617 -1077q-29 -51 -78 -25q-47 25 -41 78z" />
<glyph unicode="0" horiz-adv-x="788" d="M38 485q15 166 68.5 321t163 243t234.5 51q186 -53 233 -301q45 -231 -47 -477q-90 -236 -248 -304q-86 -35 -178 -8q-121 35 -181 172t-45 303zM243 413q5 -171 60 -200q84 -43 150 129q66 178 55 383q-14 192 -96 190q-78 -6 -126 -168.5t-43 -333.5z" />
<glyph unicode="1" horiz-adv-x="528" d="M-3 828.5q-7 33.5 11 64.5q10 29 64.5 65.5t169.5 102.5l30 18q6 2 11 6l14 9v-2q55 27 120.5 19.5t65.5 -50.5q-2 -18 -9 -98t-9 -104.5t-7 -98.5t-7 -104.5t-6.5 -97t-4.5 -104.5t-1 -97.5t0 -103.5t3 -97.5t7 -100.5q0 -45 -57.5 -52t-115 22.5t-55.5 74.5 q-16 317 0 729q-43 -33 -80 -65q-33 -31 -66.5 -27t-52 31t-25.5 60.5z" />
<glyph unicode="2" horiz-adv-x="782" d="M38.5 89q-13.5 75 27.5 140q39 59 114.5 134t137 131.5t112.5 137.5t57 165q8 113 -88 141q-76 20 -129 -23q-23 -18 -24 -45q-2 -29 24.5 -51t81.5 -28q6 -47 -14.5 -80t-55 -44.5t-74.5 -8t-73 23.5q-113 66 -90 188q12 74 70.5 130.5t136.5 85t164 27.5t156.5 -32.5 t112.5 -106.5t36 -183q-6 -80 -42 -152t-86 -127t-102.5 -101t-102 -95.5t-69.5 -88.5h72t56.5 1t52 4.5t49 5.5t60.5 6t73 6q61 2 68 -72q4 -82 -54 -137q-33 -33 -73 -33q-96 -10 -255 -2t-255 6q-61 2 -74.5 77z" />
<glyph unicode="3" horiz-adv-x="784" d="M41 870q16 92 98 157t180.5 82t196.5 -17.5t146 -124.5q96 -188 -62 -373q98 -33 132 -140.5t-1 -226t-121 -182.5q-76 -57 -175 -66.5t-184 23.5t-145.5 112t-62.5 187q-2 72 49 84q43 10 62 -29l4 -16q33 -109 122 -144.5t177 40.5q25 23 39 53t15 60t-9 57.5t-35 45 t-62.5 23.5t-91.5 -8q-10 -4 -15 2t-5 21.5t1 27.5t4 34t3 28q2 4 6 8q14 16 42 36.5t48.5 35t39 50t22.5 87.5q6 117 -82 141q-68 20 -113 -23q-20 -18 -22 -45q-2 -29 24.5 -51t81.5 -28q6 -47 -14.5 -80t-55 -44.5t-75.5 -8t-74 23.5q-111 66 -88 188z" />
<glyph unicode="4" horiz-adv-x="768" d="M5 423q-21 52 5 83q49 43 110.5 140t139.5 212t164 197q39 49 136 55t99 -51q-35 -403 -41 -553q27 2 50 6q45 6 64.5 -27.5t8 -72.5t-44.5 -52q-23 -8 -82 -14q0 -156 11 -293q0 -43 -57.5 -50t-115 21.5t-55.5 75.5q-6 117 -8 240q-242 0 -332 25q-31 6 -52 58z M231 500q80 -2 158 -2q2 117 6 250q-25 -35 -79 -121t-85 -127z" />
<glyph unicode="5" horiz-adv-x="802" d="M39 238q-23 121 88 188q27 14 58.5 20.5t62.5 1t55.5 -19.5t35.5 -44t7 -69q-55 -6 -81.5 -28.5t-24.5 -50.5q2 -37 52 -47.5t81 -0.5q59 12 102 59.5t55 121.5q6 47 -7 100t-49 97t-97.5 53.5t-151.5 -29.5q0 -2 -4 -2q-66 -33 -98 -15q-16 10 -29.5 31t-7.5 41 q23 66 21.5 198t15.5 185q16 47 51 70q14 10 33.5 14t49.5 2t55.5 -5t67.5 -10t69 -9q86 -10 235 8q63 0 68 -58q2 -63 -60 -108q-29 -18 -65 -25q-35 -6 -150 6.5t-182 8.5q-6 -111 -12 -156q135 39 239 10q94 -27 154.5 -99.5t78 -163.5t-1 -189.5t-68.5 -178t-138 -128 t-197 -40.5q-115 8 -204 79t-107 182z" />
<glyph unicode="6" horiz-adv-x="829" d="M37 477q-6 150 28.5 285t119.5 235.5t206 122.5q66 12 124 5t104.5 -30.5t81 -56t52 -74.5t19.5 -83t-17.5 -82t-58.5 -74q-41 -31 -95 -37t-95 25t-41 94q94 23 106 84q8 49 -43 67q-31 10 -69 5q-72 -12 -129.5 -135t-50.5 -271q94 113 229 107q123 -6 205 -109.5 t75 -243.5q-8 -139 -98 -233t-213 -90q-82 -6 -154.5 19.5t-136 80.5t-103.5 155.5t-46 233.5zM307 345q-4 -75 31 -130t88 -57q35 -2 64.5 21.5t49 63.5t21.5 89q4 76 -30.5 131t-87 57t-92.5 -49t-44 -126z" />
<glyph unicode="7" horiz-adv-x="741" d="M17.5 912.5q-11.5 50.5 14 107.5t68.5 76q49 23 295 10q164 -8 260 -6q47 -2 64.5 -44t9.5 -90t-29 -83q-76 -94 -145 -228l16 -4q47 -20 58 -90q10 -68 -35 -76h-12q-51 8 -99 11q-102 -250 -129 -453q-4 -37 -57 -41t-103.5 25.5t-48.5 72.5q7 115 111 389 q-12 -2 -39 -4t-41 -4q-35 -2 -41 43t6 72q20 84 74 84q66 2 121 -2q31 68 63 129q25 45 45 80q-106 0 -176 -6q-37 -2 -106.5 -9.5t-79.5 -9.5q-53 0 -64.5 50.5z" />
<glyph unicode="8" horiz-adv-x="784" d="M39 252q-4 90 36 184t118 154q-55 27 -88 74t-39.5 100t6 109.5t49.5 105.5t85 86t118.5 53t148.5 4q90 -14 150.5 -57t81 -100.5t14.5 -120t-42 -121.5t-93 -100q66 -33 107.5 -88.5t50 -119t-4 -130t-53.5 -126t-96.5 -102.5t-135 -61.5t-167.5 -3.5q-113 20 -177.5 95 t-68.5 165zM251 274.5q18 -92.5 75 -108.5q94 -31 145 82q51 104 21 207q-27 92 -107 88q-78 -4 -115 -90t-19 -178.5zM260 764.5q16 -66.5 70 -80.5q92 -25 141 66q43 82 10 153q-28 57 -96 55q-72 -4 -106.5 -65.5t-18.5 -128z" />
<glyph unicode="9" horiz-adv-x="829" d="M41 805q6 139 97 233.5t214 87.5q80 6 154 -18.5t136.5 -79.5t102 -155.5t46.5 -233.5q8 -150 -27 -285t-120 -236.5t-208 -123.5q-88 -16 -167 4t-127 66.5t-72.5 102.5t-8 117.5t71.5 104.5q31 25 71 34t75.5 2t60.5 -37t25 -79q-94 -23 -107 -84q-8 -49 43 -67 q29 -12 68 -4q74 10 131 134t51 271q-94 -113 -229 -106q-123 6 -205 109.5t-76 242.5zM268 783.5q-4 -74.5 31 -130t87 -57.5t92 49t44 125q2 49 -13 92t-43 68.5t-63 27.5q-53 2 -92 -49t-43 -125.5z" />
<glyph unicode=":" horiz-adv-x="329" d="M29 422q2 51 44 85t98 29.5t94 -42t35 -89t-44 -85t-97.5 -29.5t-94 42t-35.5 89zM30 845q5 50 48 81.5t99 25.5t92 -46t31 -90t-48 -82t-99.5 -25.5t-92 46.5t-30.5 90z" />
<glyph unicode=";" horiz-adv-x="333" d="M31 838.5q2 50.5 44 84t98 30.5t94 -42t35 -89t-44 -83.5t-97.5 -30.5t-94 41.5t-35.5 89zM36 418q-1 45 31 81t87 38q72 2 107.5 -39t33.5 -103q-2 -59 -50 -135t-100 -102q-43 -23 -51 -10.5t17 63.5q23 47 24.5 71.5t-8.5 30.5t-30.5 14.5t-30.5 18.5q-29 27 -30 72z " />
<glyph unicode="&#x3c;" horiz-adv-x="620" d="M16 563q-2 66 50 90q12 6 30 17q156 92 219 123q74 33 154 71q55 33 106 -10q41 -35 15 -70q-8 -8 -21 -16q-59 -27 -95 -45t-60.5 -30.5t-52 -29t-38 -22.5t-53.5 -34.5t-63 -43.5q23 -14 57.5 -36.5t44.5 -30t36 -22.5l39 -22.5t43 -22.5t60.5 -30.5t81.5 -38.5 q49 -27 21 -71q-31 -45 -88 -37q-16 4 -33 12q-80 39 -154 72q-63 31 -219 123q-18 10 -30 16q-51 25 -50 88z" />
<glyph unicode="=" horiz-adv-x="688" d="M20 428q4 57 54 86q23 12 47 10h35q180 2 252 -4q12 -2 20 -2t25.5 -2t34 -3t38.5 -3t49 -4q61 0 87 -55q23 -51 -17 -72q-12 -6 -31 -4q-113 8 -168 10t-82.5 1t-115.5 -6t-178 -9q-51 2 -50 57zM20 659q4 57 54 86q23 12 47 11h35q180 2 252 -4q80 -8 167 -15 q61 0 87 -55q23 -51 -17 -72q-12 -6 -31 -4q-92 6 -135 8t-88 2t-68.5 -1t-98 -5t-154.5 -8q-51 2 -50 57z" />
<glyph unicode="&#x3e;" horiz-adv-x="620" d="M31 344q6 8 20 16q43 20 73 35t54.5 27t44 22.5t32.5 18.5t32.5 20.5t32 20.5t42 26.5t52.5 32.5q-23 16 -59 39t-46 30t-34.5 22.5t-38 22.5t-44 22.5t-61.5 29.5t-80 39q-51 27 -20 72q29 43 86 34q18 -2 35 -10q78 -39 151 -71q63 -31 221 -123q4 -2 6 -4t7.5 -4.5 t8.5 -4.5t7 -4q51 -25 49 -90q2 -63 -49 -88q-10 -6 -29 -16q-158 -92 -221 -123q-74 -33 -151 -72q-57 -33 -107 10q-43 35 -14 70z" />
<glyph unicode="?" horiz-adv-x="700" d="M14 870q20 113 136 181.5t251 62.5q90 -4 159 -52t99.5 -115.5t21.5 -148.5t-67 -149q-14 -16 -49 -53t-52 -60.5t-40.5 -60.5t-34 -82t-8.5 -98q-2 -47 -54 -57.5t-101.5 18.5t-45.5 76q0 84 20.5 150.5t49.5 107.5t57.5 73.5t50 65.5t25.5 68q8 113 -80 141 q-66 20 -114 -23q-20 -20 -23 -45q-2 -29 24.5 -51t82.5 -28q6 -47 -14.5 -80t-55.5 -44.5t-76 -8t-74 23.5q-111 66 -88 188zM190.5 61.5q2.5 51.5 48.5 85t107.5 30.5t102 -42t38.5 -89t-48 -84t-107.5 -31t-102.5 41t-38.5 89.5z" />
<glyph unicode="@" horiz-adv-x="950" d="M29 550q0 185 131 315t315 130t315.5 -130t131.5 -316q0 -102 -41 -187.5t-129 -117.5q-96 -33 -170 28q-59 49 -68 131q-51 -80 -123 -63q-47 12 -71.5 51t-24.5 89t13.5 99.5t35.5 84.5q35 57 88 68t90 -25q8 16 36 26t51.5 5t23.5 -23q-14 -182 -15 -322q8 -27 27 -43 q31 -25 72 -10q53 18 79.5 80.5t26.5 128.5q0 145 -101 247.5t-246.5 102.5t-247 -102.5t-101.5 -246.5t101.5 -246.5t246.5 -102.5q31 0 60 6q23 4 40 -18.5t16 -45t-22 -30.5q-47 -10 -94 -11q-184 0 -315 131.5t-131 316.5zM408 442q12 -20 32 -18q35 2 56.5 52 t19.5 103.5t-27 63.5q-47 20 -77 -61q-31 -88 -4 -140z" />
<glyph unicode="A" horiz-adv-x="991" d="M-6 172q51 133 220 442.5t218 456.5q2 4 6 8q17 41 105 41h9q96 -2 140 -51q23 -72 83.5 -293t116.5 -391t109 -256q3 -9 3 -19q0 -32 -36 -65q-46 -43 -98 -48q-6 -1 -13 -1q-43 0 -60 33q-61 82 -119 245h-22q-73 0 -244 -10q-27 2 -31 43q-1 7 -1 13q0 34 18 67 q20 37 45 37h3q78 0 183 -2q-2 10 -92 336q-31 -61 -118 -224t-141.5 -279t-87.5 -222q-18 -22 -48 -22q-14 1 -31 5q-52 16 -95 66q-29 34 -29 63q0 14 7 27z" />
<glyph unicode="B" horiz-adv-x="950" d="M-6 866q18 76 89 134.5t166 88t203 30.5h7q103 -1 192 -27q92 -28 155.5 -94t72.5 -162q1 -11 1 -21q0 -132 -141 -215q103 -49 157 -138q37 -61 38 -139q0 -35 -8 -73q-16 -88 -72 -146q-55 -58 -131 -78q-66 -18 -139 -17h-21q-84 3 -164 30q-14 -21 -51 -25 q-12 -1 -24 -1q-26 1 -52 7q-39 10 -67.5 33t-26.5 53q-9 153 -9 331q0 197 11 425q-41 -27 -65 -55q-38 -34 -70 -34q-15 1 -27 7q-29 15 -29 52q0 15 5 34zM395 225q66 -26 121 -25q75 0 129 48q52 45 52 103q0 21 -7 44q-31 98 -170 117q-24 3 -49 3q-34 0 -72 -5 q-5 -103 -6 -195q1 -46 2 -90zM408 651q14 -1 27 0q107 0 165 43q63 48 62 111q0 85 -69 121q-50 26 -120 26q-21 0 -43 -2q-16 -195 -22 -299z" />
<glyph unicode="C" horiz-adv-x="864" d="M16 532q2 143 61.5 275.5t167 218.5t232.5 92q15 1 29 1q74 1 139 -25q78 -30 123 -83q46 -53 66 -111q10 -28 10 -56q0 -30 -12 -60q-22 -58 -82 -94q-33 -18 -74 -22q-10 -1 -20 -1q-30 0 -56 9q-36 12 -56 45q-15 24 -14 55q0 12 2 25q76 8 98 47q9 16 10 30 q0 22 -20 42q-32 32 -93 32h-7q-114 0 -188 -134q-70 -127 -70 -290v-18q2 -76 24.5 -137.5t57.5 -97t77 -55.5q37 -18 76 -18h11q45 3 86 20.5t73.5 57t51.5 95.5q6 43 51 45h4q44 0 55 -47q4 -16 2 -37q-18 -205 -186 -293q-87 -47 -181 -47q-74 0 -151 29 q-188 72 -262 274q-35 99 -35 220v13z" />
<glyph unicode="D" d="M-6 866q23 92 115 155.5t221 86.5q69 11 131 11q53 0 101 -8q104 -17 176.5 -69.5t124.5 -125t77 -162.5t30 -182q1 -18 1 -35q-1 -73 -17 -146q-20 -90 -57 -164.5t-98 -130.5t-135 -76q-47 -14 -98 -14q-79 0 -169 33q-12 -21 -50 -25q-12 -1 -24 -1l-52 7 q-38 10 -66.5 33t-26.5 53q-9 153 -9 332q0 198 11 426q-35 -27 -63 -57q-38 -34 -70 -34q-13 1 -27 7q-30 15 -31 52q0 15 5 34zM395 225q56 -21 104 -21q109 0 177 107q64 99 64 234q0 43 -7 90q-31 201 -162 280q-63 37 -141 37q-36 -420 -36 -660q0 -36 1 -67z" />
<glyph unicode="E" horiz-adv-x="843" d="M8 1063q16 47 55 65q21 16 94 16q33 0 77 -4q140 -10 276 -24q48 -5 94 -5q85 0 162 17q65 0 65 -63q0 -60 -53 -100q-30 -23 -67 -23q-23 -4 -75 -4t-85 2t-94.5 6t-100.5 6q-14 -160 -20 -256q55 -2 119 -2q96 0 213 4q27 2 44 -34q13 -27 13 -55q0 -10 -2 -19 q-6 -37 -35 -37q-115 -6 -360 -8v-4q-3 -61 -3 -111q0 -140 21 -194q22 -41 85 -40h19q80 7 164 35.5t127 59.5q14 9 27 9q27 0 49 -38q18 -31 18 -61q0 -33 -22 -66q-25 -39 -80 -53q-83 -34 -187 -56q-72 -15 -148 -15q-34 1 -68 3q-112 10 -160 68q-37 51 -55.5 139 t-18.5 167v151q6 250 15 409q-8 0 -15 -2q-8 -1 -15 -1q-45 0 -65 33q-14 23 -15 49q1 17 7 36z" />
<glyph unicode="F" horiz-adv-x="819" d="M10 1067q16 47 56 66q21 16 93 16q33 1 77 -3q139 -10 276 -26q52 -5 101 -5q81 0 155 15h4q62 0 62 -61q0 -60 -54 -102q-30 -23 -67 -23q-33 -2 -76 -2t-79 2t-95.5 6t-95.5 6q-14 -162 -21 -260q52 -2 115 -2q93 0 209 4q27 2 44 -34q13 -27 13 -55q0 -10 -2 -19 q-6 -37 -35 -37q-111 -6 -354 -8q-5 -108 -5 -207q0 -148 11 -275q0 -43 -58 -50q-12 -1 -23 -1q-47 0 -92 22q-56 28 -54 75q-8 151 -8 327q0 235 14 516q-12 -2 -23 -2q-8 -1 -15 -1q-45 0 -65 33q-14 23 -15 49q1 17 7 36z" />
<glyph unicode="G" horiz-adv-x="894" d="M16 539q2 143 61.5 276t167 220t232.5 95h21q78 0 147 -26q78 -31 123 -83t66 -111q10 -30 10 -58q0 -31 -12 -60q-21 -59 -82 -94q-33 -20 -74 -24q-10 -1 -20 -1q-30 0 -56 9q-35 12 -56 45q-14 24 -14 56q0 12 2 26q57 6 85 31.5t23 53.5t-37 49.5t-79 21.5 q-117 0 -192 -137q-70 -131 -70 -296v-18q4 -111 44 -188.5t96 -109.5q49 -27 102 -27q9 0 18 1q64 5 115 50q0 145 -6 213q0 41 57 47q11 1 21 1q47 0 93 -21q58 -27 56 -70q2 -55 2 -169t6 -180q-2 -50 -76 -50h-2q-77 1 -124 42q-72 -45 -160 -54q-20 -2 -40 -2 q-68 0 -134 23q-86 31 -158 93.5t-115 172.5q-41 106 -41 240v13z" />
<glyph unicode="H" horiz-adv-x="901" d="M59 109q-8 145 -8 318q0 267 19 597q-2 46 60 74q50 23 102 22q14 0 26 -1q64 -7 64 -50q-25 -293 -31 -373q52 -2 111 -2q90 0 198 4q6 143 14 326q-2 46 62 74q51 23 101 22l25 -1q64 -7 64 -50q-2 -18 -8 -98t-8 -104.5t-8 -98.5t-7 -104.5t-5.5 -97t-5.5 -103.5 t-2 -97q0 -30 -0.5 -56.5t0.5 -48.5q1 -44 4 -96t8 -102q0 -43 -58 -50q-12 -1 -23 -1q-47 0 -93 22q-56 28 -54 75q-9 157 -9 327q0 57 1 115q-121 -4 -315 -6q-5 -116 -5 -221q0 -140 9 -261q1 -43 -57 -50q-11 -1 -23 -1l-93 23q-58 29 -55 74z" />
<glyph unicode="I" horiz-adv-x="354" d="M59 109q-8 145 -8 318q0 267 19 597q-2 46 60 74q50 23 102 22q14 0 26 -1q64 -7 64 -50q-2 -18 -9.5 -98t-8.5 -104.5t-7 -98.5t-8 -104.5t-5 -97t-4 -103.5q0 -37 -2 -97q-1 -30 -1 -56q1 -27 1 -49q2 -44 3.5 -96t5.5 -102q1 -43 -57 -50q-11 -1 -23 -1l-93 23 q-58 29 -55 74z" />
<glyph unicode="J" horiz-adv-x="598" d="M-20 70q10 53 49 91q37 36 88 36h5q54 -2 97 -58q-25 -18 -38 -39.5t-13 -42t6 -38t17.5 -28.5t23.5 -11h4q53 0 70 190q12 145 12 440t8 414v5q0 42 59 69q51 22 102 22l26 -1q63 -7 63 -50q-6 -96 -18.5 -445.5t-34.5 -494.5q-25 -141 -92 -222q-63 -75 -183 -75h-18 q-104 4 -178 74q-59 55 -59 126q0 19 4 38z" />
<glyph unicode="K" horiz-adv-x="763" d="M59 109q-8 145 -8 318q0 267 19 597q-2 46 60 74q50 23 102 22q14 0 26 -1q64 -7 64 -50q-23 -274 -29 -344q45 39 80 70q154 139 205 247q2 4 11 27t14 32t20.5 16t35.5 3t43 -23.5t37.5 -47t18.5 -59.5t-10 -60q-12 -25 -29 -50.5t-39.5 -52t-45 -51t-53 -55.5 t-56 -55.5t-62.5 -59.5t-62 -59q59 -90 102.5 -150.5t113 -138.5t126.5 -113q16 -19 16 -38q0 -31 -42 -60q-53 -36 -107 -36q-20 0 -41 5q-35 10 -53 35q-29 27 -61.5 69t-52 69.5t-65.5 98t-61 93.5v-45q0 -146 11 -273q1 -43 -57 -50q-11 -1 -23 -1l-93 23q-58 29 -55 74 z" />
<glyph unicode="L" horiz-adv-x="677" d="M59 109q-8 145 -8 318q0 267 19 597q-2 46 60 74q50 23 102 22q14 0 26 -1q64 -7 64 -50q-2 -10 -9.5 -105.5t-9.5 -115t-8 -102t-8 -114.5t-5 -102.5t-4.5 -114.5t-1.5 -103.5t3 -110.5q17 -1 35 -1q148 0 325 46h3q52 0 53 -54q0 -6 -1 -12q-8 -76 -71 -125 q-36 -28 -73 -28h-3q-20 -2 -96 -6.5t-152 -6.5t-94 -2q-53 2 -100.5 29t-45.5 68z" />
<glyph unicode="M" horiz-adv-x="1038" d="M59 109q-8 145 -8 318q0 267 19 597q-2 44 59 72q50 23 101 23q11 0 22 -1q43 0 67 -26q27 -16 54.5 -111.5t62.5 -255.5t62 -248q43 90 125 301t116 266q27 41 84 62q38 14 77 14q18 0 36 -3q58 -9 57 -48q-26 -306 -26 -578q0 -226 18 -428q-1 -43 -59 -50 q-12 -1 -22 -1q-47 0 -92 22q-56 28 -54 75q-16 279 -21 432q-125 -293 -166 -314q-26 -22 -62 -22h-9h-8q-46 1 -88 21q-46 22 -62 63q-31 55 -59 246q-5 -113 -5 -216q0 -137 9 -256q1 -43 -57 -50q-11 -1 -23 -1l-93 23q-58 29 -55 74z" />
<glyph unicode="N" horiz-adv-x="899" d="M59 109q-8 145 -8 318q0 267 19 597q-2 37 43 64.5t96 30.5h16q41 0 72 -13q16 -4 27 -14q18 -8 41.5 -47t51 -105t53.5 -132.5t61.5 -159.5t62.5 -156q0 223 18 532q-4 53 84 82q47 16 83.5 16t62.5 -16q20 -14 20 -37q0 -18 -7 -98t-9 -104.5t-7 -97.5t-7.5 -104.5 t-6.5 -98t-4 -103.5t-2 -97q-1 -30 -1 -56.5t1 -48.5q2 -44 4 -96t6 -102q-2 -51 -78.5 -51t-123.5 43q-29 14 -47 41q-55 51 -100.5 150.5t-98.5 252t-88 230.5q-16 -223 -16 -404q0 -144 10 -262q1 -43 -57 -50q-11 -1 -23 -1l-93 23q-58 29 -55 74z" />
<glyph unicode="O" horiz-adv-x="841" d="M22 385q-4 36 -4 72q0 55 8 110q14 92 43 181.5t78.5 163t107.5 127t133 71.5q38 9 76.5 9t78.5 -9q84 -23 144.5 -78t90 -130t40.5 -165q5 -38 5 -76q0 -52 -9 -105q-15 -91 -45 -181t-81 -162t-112 -125q-60 -52 -139 -70q-37 -8 -75 -9q-43 0 -88 11q-78 18 -133 72.5 t-82 128.5t-37 164zM252 492q-2 -25 -1 -49q1 -71 13 -127q18 -76 53 -93q20 -9 39 -9q76 0 133 144q62 156 62 324q1 28 -1 54q-11 191 -106 190h-6q-51 -4 -94 -72t-64.5 -165t-27.5 -197z" />
<glyph unicode="P" horiz-adv-x="882" d="M-6 879q18 84 100 145t192 89q85 22 173 22q25 0 51 -2q258 -16 342 -195q32 -68 32 -140q0 -80 -40 -163q-74 -152 -226 -193q-44 -12 -90 -12q-63 0 -131 23q-3 -69 -3 -134q0 -137 12 -256q0 -43 -58 -50q-12 -1 -24 -1q-46 0 -92 22q-54 27 -54 66v6q-9 155 -9 335 q0 200 11 431q-41 -27 -65 -55q-38 -34 -70 -34q-15 1 -27 7q-29 15 -29 53q0 16 5 36zM406 643q43 -17 81 -17q71 0 123 60q51 55 51 120q0 22 -6 44q-25 102 -151 115q-12 1 -24 1q-24 0 -50 -3q-16 -207 -24 -320z" />
<glyph unicode="Q" horiz-adv-x="845" d="M22 385q-4 36 -4 72q0 54 8 110q15 92 43.5 181.5t78 163t107.5 127t133 71.5q38 9 76.5 9t78.5 -9q133 -35 204.5 -150.5t74.5 -259.5v-17q0 -135 -43 -275q-46 -150 -134 -252q29 -31 80 -86q12 -12 7 -33t-21.5 -40.5t-37 -34.5t-40 -17t-31.5 10q-35 35 -86 92 q-75 -38 -154 -38q-43 0 -88 11q-78 18 -133 72.5t-82.5 128.5t-36.5 164zM252 492q-2 -25 -2 -49q0 -70 14 -127q17 -76 53 -93q27 -12 52 -6q-16 18 -31 37q-12 12 -12 30q0 28 30 70q40 54 70 54q5 0 10 -2l10 -7q27 -35 39 -49q43 104 59 242q7 52 7 100q0 76 -17 138 q-25 96 -91 96h-5q-51 -4 -94 -72t-64.5 -165t-27.5 -197z" />
<glyph unicode="R" horiz-adv-x="905" d="M-6 866q18 84 100 144t192 88q85 21 172 22q26 0 52 -2q106 -6 185 -43t119 -91t58 -120q10 -37 11 -73q-1 -29 -7 -59q-14 -66 -44.5 -125.5t-85.5 -105t-125 -65.5q166 -229 253 -293q16 -19 16 -37q0 -30 -42 -59q-52 -37 -106 -37q-21 0 -42 6q-35 8 -55 35 q-45 43 -127 168t-123 178q-1 -38 -1 -75q0 -139 12 -261q0 -41 -58 -48q-12 -1 -24 -1q-46 0 -92 22q-54 26 -54 66v6q-9 153 -9 331q0 197 11 425q-41 -27 -65 -55q-38 -34 -70 -34q-15 1 -27 7q-29 15 -29 52q0 15 5 34zM406 635q44 -17 82 -17q72 0 124 60q49 56 49 119 q0 22 -6 45q-27 98 -151 108q-18 2 -36 2t-38 -2q-16 -203 -24 -315z" />
<glyph unicode="S" horiz-adv-x="763" d="M18 346q20 60 80 98q31 20 72 26q15 2 28 1q25 0 48 -6q34 -10 56 -43q17 -27 18 -63q0 -8 -1 -17q-74 0 -88 -59q-2 -10 -2 -19q0 -39 41 -63q23 -12 51 -11h15q72 2 96 37q16 23 17 49q-1 13 -5 27q-12 41 -41 72q-23 25 -98.5 93.5t-126.5 128.5t-78 122 q-21 56 -21 107q0 46 17 87q35 88 121 147.5t189 67.5q20 2 40 2q66 0 124 -22q74 -28 114 -78q42 -50 56 -108q5 -22 5 -43q1 -37 -15 -75q-24 -60 -85 -97q-31 -19 -72 -25q-15 -2 -28 -2q-25 0 -47 6q-34 10 -58 43q-18 26 -17 61q0 9 1 19q98 4 117 65q4 12 4 23 q0 34 -39 55q-20 10 -51 11q-63 -1 -101 -49q-23 -29 -23 -66q0 -22 9 -47q10 -35 43 -75t73 -76t85 -79t83 -81.5t63.5 -88t27.5 -98.5q1 -9 1 -18q0 -111 -90 -193q-98 -88 -239 -94h-20q-79 0 -150 28q-80 32 -127 85q-48 53 -70 113q-12 32 -11 64q-1 29 9 58z" />
<glyph unicode="T" horiz-adv-x="782" d="M-22 1023q0 4 -1 8q1 29 15 57q16 32 47 45q21 16 93 15q33 0 77 -2q139 -10 277 -26q52 -5 100 -5q81 0 155 15h4q62 0 62 -61q0 -60 -53 -102q-31 -23 -68 -23q-30 -3 -72 -3t-98 3q-32 -371 -32 -630q0 -143 10 -251q0 -43 -58 -50q-12 -1 -23 -1q-47 0 -93 22 q-56 28 -54 75q-9 154 -9 334q0 235 15 515h-36q-88 0 -164 -8q-6 -1 -13 -1q-35 -1 -55 19q-24 22 -26 55z" />
<glyph unicode="U" horiz-adv-x="831" d="M41 606q2 100 5 162.5t9 150t8 105.5q-1 46 61 74q50 23 101 22q13 0 25 -1q64 -7 65 -50q-2 -2 -5 -42t-8 -87t-10 -115.5t-9 -134.5q-5 -67 -7 -139q-2 -51 -2 -97q0 -18 1 -36q1 -62 6 -111t16.5 -76.5t28.5 -29.5h3q44 0 97 58q55 60 98 151q0 254 19 614 q-3 46 61 74q51 23 102 22l26 -1q64 -7 63 -50q-2 -18 -8.5 -99t-8.5 -104.5t-8 -97.5t-7 -104.5t-5 -98t-5 -104.5t-2 -97q0 -30 -0.5 -56.5t0.5 -48.5q1 -44 4 -97t7 -101q0 -43 -58 -51q-12 -2 -25 -2q-45 0 -91 24q-53 27 -53 67v7q-4 41 -5 84q-101 -170 -233 -170h-12 q-66 2 -113 35q-39 27 -66.5 83.5t-41 135t-19.5 155.5q-5 58 -5 128q0 24 1 49z" />
<glyph unicode="V" horiz-adv-x="790" d="M35 866q4 96 4 159q1 45 61 73q50 23 101 22q13 0 25 -1q64 -7 65 -50q-6 -62 -5 -164q0 -119 7 -291q14 -320 53 -397q12 -19 25 -19q36 0 84 130q88 244 170 714q4 18 4 23q0 14 16.5 27.5t39 19.5t45 5t38.5 -18.5t18 -47.5v-7q0 -61 -32 -217q-34 -165 -89 -351 q-55 -184 -141 -326q-85 -140 -168 -140h-2q-80 2 -135 41t-94 136.5t-56.5 213t-27.5 241.5q-7 90 -7 165q0 31 1 59z" />
<glyph unicode="W" horiz-adv-x="1161" d="M43 406q-1 43 -1 83q0 80 3 149q4 103 16.5 232t14.5 152q-2 48 60 76q50 23 102 22q14 0 26 -1q64 -7 64 -50q-2 -27 -14.5 -126t-22.5 -199q-11 -102 -19 -212q-6 -82 -6 -149q0 -24 1 -47q3 -86 20 -119q12 -19 25 -19q36 0 83 130q37 104 80 284q4 100 17.5 244.5 t15.5 165.5q-2 48 60 76q50 23 102 22q14 0 26 -1q64 -7 64 -50q-2 -25 -11.5 -100.5t-18.5 -154.5t-17 -176q-9 -97 -13 -178q-2 -40 -2 -78q0 -36 2 -70q4 -68 19 -95q12 -19 25 -19q35 0 81 130q90 244 172 714q4 18 4 23q0 14 16.5 27.5t39 19.5t45 5t39 -18.5 t18.5 -47.5v-7q-1 -61 -33 -217q-34 -165 -90 -351q-55 -184 -140 -326q-84 -140 -167 -140h-2q-80 2 -135 41q-61 43 -92 162q-101 -203 -201 -203h-4q-80 2 -135 41t-85 132t-32 223z" />
<glyph unicode="X" horiz-adv-x="827" d="M15 128q5 28 24 44q59 43 192 236q-84 154 -140 315.5t-64 273.5q-1 5 -1 10q0 39 53 73q58 37 115 37h4q58 -1 72 -42q8 -178 119 -428q182 293 221 424q8 25 49 28h8q36 1 68 -23q28 -22 28 -58q0 -8 -1 -17q-27 -152 -279 -536q150 -252 305 -324q52 -23 52 -49 q0 -17 -21 -35q-55 -45 -155 -45h-9q-47 2 -84 17q-115 47 -237 219q-121 -164 -180 -215q-31 -25 -57.5 -25t-46 20.5t-30 46t-5.5 53.5z" />
<glyph unicode="Y" horiz-adv-x="720" d="M-4 997q-1 5 -1 10q0 39 55 73q59 37 116 37h2q58 -1 72 -42q10 -178 120 -428q180 293 222 424q6 25 47 28h8q37 0 69 -23q28 -22 28 -58q0 -8 -1 -17q-29 -160 -299 -567q-2 -61 -2 -119q0 -134 10 -252q0 -43 -57 -50q-11 -1 -22 -1q-46 0 -93 22q-57 29 -55 75 q-8 141 -8 292l-4 7q-84 154 -140.5 315.5t-66.5 273.5z" />
<glyph unicode="Z" horiz-adv-x="763" d="M12 98q-3 18 -4 36q0 54 31 104q53 84 143 195.5t176 228t150 241.5q-26 2 -56 2t-62 -2q-64 -4 -84.5 -5t-85 -9t-118.5 -12h-4q-54 0 -70 58q-6 22 -7 43q0 38 20 76q31 60 90 60q51 4 124 4q64 0 145 -3q135 -5 223 -5h47q37 -2 55 -32q19 -29 21 -69q1 -11 0 -22 q0 -28 -4 -56q-6 -38 -19 -61q-61 -121 -153.5 -245.5t-170 -224t-106.5 -162.5q11 0 22 -1q134 0 365 23q61 0 65 -74q1 -8 1 -15q0 -70 -52 -122q-35 -31 -73 -31q-52 -5 -126 -5q-63 -1 -141 3q-139 7 -229 7h-39q-60 1 -74 75z" />
<glyph unicode="[" horiz-adv-x="319" d="M59 1151q0 53 42 87t99.5 42t114.5 0q27 -6 31 -22.5t-12 -36.5q-6 -8 -32 -19.5t-44 -29t-18 -44.5v-1073q0 -27 18 -43t44 -28.5t32 -18.5q16 -20 12 -37.5t-31 -21.5q-55 -6 -111.5 -1t-98.5 37.5t-42 86.5z" />
<glyph unicode="\" horiz-adv-x="862" d="M66 1110q-25 47 32 66q66 20 119 -19q16 -14 25 -33q139 -229 300.5 -520.5t245.5 -484.5q33 -55 -10 -99q-39 -39 -76 -10q-10 8 -18 23q-143 354 -618 1077z" />
<glyph unicode="]" horiz-adv-x="319" d="M-29 -72.5q-4 17.5 15 37.5q6 6 31.5 18.5t44 29t18.5 42.5v1073q0 20 -12.5 37t-27.5 24t-31.5 15t-22.5 17q-18 20 -14.5 36.5t32.5 22.5q57 8 113.5 0t99.5 -42t43 -87l-4 -1122q0 -53 -42 -86t-98.5 -38t-111.5 1q-29 4 -33 21.5z" />
<glyph unicode="^" horiz-adv-x="522" d="M29 879q-33 47 0 96q8 14 22 24q125 115 189 168q12 16 32.5 13.5t28.5 -19.5q78 -106 193 -231q37 -43 -9 -74q-45 -31 -96 0q-14 8 -24 23q-59 66 -115 125q-41 -35 -150 -132q-43 -37 -71 7z" />
<glyph unicode="_" horiz-adv-x="858" d="M8 33q4 59 53 86q23 12 48 10q231 4 332.5 1t314.5 -17q61 0 86 -58q23 -51 -17 -69q-12 -6 -28 -6q-63 4 -113.5 7t-105 4t-87 1t-97 -2t-93.5 -3t-116 -5.5t-128 -4.5q-51 2 -49 56z" />
<glyph unicode="`" horiz-adv-x="327" d="M18 1030q-20 43 15 74t84 2q74 -47 170 -150q33 -29 30.5 -54t-61.5 -11q-29 6 -75 23.5t-96 50t-67 65.5z" />
<glyph unicode="a" horiz-adv-x="802" d="M49 552q29 108 78 185q79 125 193 153q30 7 57 7q79 0 141 -59q20 37 80 57q38 13 73 13q19 0 37 -4q52 -11 52 -52q-10 -118 -14 -220q-4 -83 -4 -139v-24q1 -61 2 -186t1 -215q0 -55 -79 -56q-84 0 -127 54q-20 23 -19 51q-2 23 -4 71q-96 -170 -229 -170q-26 0 -54 7 q-107 25 -161 113q-54 86 -53 193q0 110 30 221zM248 330q13 -121 87 -122q3 0 7 1q76 3 123 115q43 103 43 211v19q-4 118 -59 140q-19 8 -37 8q-65 0 -117 -104q-50 -107 -50 -217q0 -25 3 -51z" />
<glyph unicode="b" horiz-adv-x="813" d="M57 117q-8 155 -8 339q0 285 19 640q-2 50 60 80q49 24 100 24q12 0 26 -2q64 -8 65 -53q-27 -330 -32 -428q100 181 237 180q26 0 54 -6q106 -25 160 -113q54 -86 54 -193q0 -109 -30 -221q-29 -108 -76 -186q-82 -130 -200 -154q-26 -5 -50 -5q-86 0 -151 67v-18 q0 -55 -76 -56q-84 0 -131 51q-20 25 -21 54zM303 362q4 -118 59 -143q19 -8 37 -8q67 0 117 108q50 104 50 213q0 28 -3 56q-15 119 -89 119h-5q-76 -4 -123 -116q-43 -103 -43 -211v-18z" />
<glyph unicode="c" horiz-adv-x="747" d="M22 335q-5 36 -5 72q-1 53 11 106q18 89 62 161q45 76 111.5 127t135.5 73q66 22 132 22h5q68 -1 124 -24q84 -40 114 -118q17 -45 16 -88q0 -32 -8 -62q-22 -72 -71 -104q-33 -20 -73 -24l-22 -2q-29 0 -54 10q-36 12 -56 50q-15 27 -14 62q0 14 2 29q102 12 121 65 q4 12 4 21q0 25 -29 39q-17 8 -36 8q-53 0 -117 -66q-6 -6 -13 -14q-48 -55 -74 -140q-22 -73 -23 -142q0 -11 1 -21q4 -78 54 -128q39 -39 102 -39q17 0 37 3q43 6 88 38t69 77q10 25 35 28.5t39 -18.5q12 -31 12 -70t-25.5 -84t-62 -83t-99 -63.5t-134.5 -25.5h-9 q-104 0 -180 43q-80 45 -119 119t-51 163z" />
<glyph unicode="d" horiz-adv-x="794" d="M47 552q29 108 78 187q77 121 189 151q32 8 61 9q75 0 135 -55q4 115 12 252q-4 59 88 90q45 16 80 16q37 0 64 -18q18 -14 18 -39q0 -20 -7 -106.5t-9 -111t-7.5 -104.5t-7.5 -112.5t-6 -104t-4 -111.5q0 -41 -2 -105q-1 -32 -1 -60t1 -52q2 -48 4 -103.5t6 -106.5 q0 -55 -77 -56q-84 0 -130 51q-23 25 -20 54q-2 31 -2 59q-98 -157 -226 -157q-25 0 -51 6q-109 25 -163 113q-53 86 -53 193q0 109 30 221zM246 328q18 -119 93 -119h3q63 4 106.5 86t55.5 186v101q-10 96 -58 114q-19 8 -37 8q-65 0 -116 -106q-50 -108 -50 -219 q0 -25 3 -51z" />
<glyph unicode="e" horiz-adv-x="747" d="M20 373q-1 20 -1 40q1 39 5 77q8 60 25 113.5t43 96.5q43 74 108.5 122t133.5 64q53 13 104 13q15 0 31 -1q66 -5 121 -30q121 -55 137 -170q3 -18 2 -36q-1 -78 -51 -140q-62 -76 -170 -98q-42 -9 -90 -9q-73 0 -158 21q-1 -12 -1 -25q0 -77 44 -139q45 -64 125 -64 q11 0 23 1q41 4 85 35.5t68 79.5q10 23 34 26.5t38 -18.5q12 -29 12 -69t-25.5 -84t-62.5 -82t-97.5 -62.5t-131.5 -24.5h-10q-73 0 -135 28q-66 30 -109 81t-67 115.5t-30 138.5zM260 522q17 -3 37 -3q38 1 83 13q69 20 105 52q41 33 49 77q2 10 2 19q0 31 -22 51 q-29 21 -60 21q-22 0 -46 -12q-56 -28 -100 -93.5t-48 -124.5z" />
<glyph unicode="f" horiz-adv-x="575" d="M4 758q-1 7 -1 13q0 34 17 67q20 36 46 36h4h53q14 166 49 240q39 82 110 124q66 38 132 38h13q73 -4 138.5 -31.5t100.5 -84.5q25 -43 25 -91q0 -16 -3 -33q-10 -53 -49 -91q-37 -36 -88 -36h-5q-54 2 -97 60q33 43 41 79.5t-4.5 56t-32.5 23.5q-6 1 -12 1 q-27 0 -45 -23q-23 -27 -34 -76q-12 -59 -20 -158q125 -2 184 -6q31 0 37 -36q2 -10 2 -20q0 -27 -13 -54q-17 -37 -46 -35q-106 4 -172 4q-7 -161 -7 -315q0 -176 9 -342q0 -55 -78 -56q-84 0 -131 51q-20 25 -18 54q1 34 1 135v118v78q0 153 3 271q-29 0 -78 -4 q-27 2 -31 43z" />
<glyph unicode="g" horiz-adv-x="806" d="M49 552q29 109 78 187q78 125 193 152q28 7 55 7q81 0 145 -60q20 39 80 58q38 12 74 12q19 0 36 -3q52 -10 52 -51q-4 -61 -7 -206.5t-7.5 -325t-12.5 -306.5q-10 -203 -91 -314q-76 -105 -220 -105h-18q-104 6 -179 75q-60 55 -60 128q0 17 3 36q10 53 50 91 q38 36 89 36h5q55 -2 98 -59q-33 -43 -41.5 -80t3 -56.5t34.5 -23.5q25 -4 41 12.5t26 57.5t14.5 82t10.5 114q6 72 8 162q-96 -153 -221 -153q-25 0 -51 6q-109 25 -164 113q-53 85 -53 193q0 109 30 221zM248 328q18 -119 93 -119h3q74 4 122 115q43 101 43 208v22 q-5 119 -60 142q-19 8 -37 8q-65 0 -117 -106q-50 -108 -50 -219q0 -25 3 -51z" />
<glyph unicode="h" horiz-adv-x="788" d="M57 117q-8 155 -8 339q0 285 19 640q-2 50 60 80q49 24 100 24q12 0 26 -2q64 -8 65 -53q-25 -305 -28 -387q74 139 176 139h6q88 -2 147.5 -48t83.5 -119q26 -73 38 -163q9 -62 8 -126q0 -28 -2 -56q-6 -92 -5.5 -175t0.5 -142q0 -55 -77 -56q-82 0 -129 51 q-20 25 -21 54q0 10 2 87t2 162t-4 174t-22.5 147t-49.5 58h-1q-87 0 -167 -288q-1 -50 -1 -98q0 -156 10 -291q0 -55 -76 -56q-84 0 -131 51q-21 25 -21 54z" />
<glyph unicode="i" horiz-adv-x="342" d="M35 1076q0 50 44 87t105.5 37t104.5 -37t43 -87t-43 -87t-104.5 -37t-105.5 37t-44 87zM49 803q-1 49 61 79q51 25 102 25q12 0 24 -1q64 -7 63 -54q-8 -119 -12 -220.5t-4 -162.5t1 -186t3 -215q0 -55 -80 -56q-84 0 -129 54q-20 23 -19 51q-12 405 -12 584q0 67 2 102z " />
<glyph unicode="j" horiz-adv-x="350" d="M-285 -164q10 53 49 91q37 36 88 36h6q54 -2 97 -59q-33 -43 -41 -80t3 -56.5t34 -23.5q25 -4 41 12.5t26.5 57.5t14.5 82t10 114q10 125 12 302q1 88 1 168.5t-1 153t-1 115.5t1 56q-2 49 61 79q49 25 100 25q13 0 26 -2q65 -8 65 -53q-6 -70 -12 -375t-16 -463 q-10 -203 -91 -314q-77 -105 -223 -105h-16q-104 6 -178 75q-60 55 -60 127q0 18 4 37zM33 1076q0 50 44 87t105.5 37t104.5 -37t43 -87t-43 -87t-104.5 -37t-105.5 37t-44 87z" />
<glyph unicode="k" horiz-adv-x="774" d="M57 117q-8 155 -8 339q0 285 19 640q-2 50 60 80q49 24 100 24q12 0 26 -2q64 -8 65 -53q-23 -279 -26 -338q88 93 205 93q14 0 28 -1q88 -8 150 -61.5t74 -139.5q2 -18 3 -36q1 -80 -53 -142q-64 -76 -178 -98q8 -18 20.5 -40t22.5 -37t27.5 -38.5t26 -36t31 -39 t28.5 -34t32.5 -37t28.5 -33.5q10 -15 10 -30q0 -32 -47 -60q-44 -26 -87 -26q-29 0 -56 12q-25 10 -39 28q-147 164 -244 387q-1 -48 -1 -94q0 -149 10 -276q0 -55 -76 -56q-84 0 -131 51q-20 25 -21 54zM283 522q17 -3 37 -3q38 1 82 13q68 20 106 52q41 33 49 77 q2 10 2 19q0 31 -22 51q-29 21 -60 21q-23 0 -47 -12q-56 -28 -99.5 -93.5t-47.5 -124.5z" />
<glyph unicode="l" horiz-adv-x="339" d="M57 117q-8 155 -8 339q0 285 19 640q-2 50 60 80q49 24 100 24q12 0 26 -2q64 -8 65 -53q-2 -20 -9 -106.5t-8 -111t-7 -104.5t-8 -112.5t-5 -104t-4 -111.5q-2 -41 -3 -105q0 -32 -0.5 -60t0.5 -52q1 -48 3.5 -103.5t6.5 -106.5q0 -55 -76 -56q-84 0 -131 51 q-21 25 -21 54z" />
<glyph unicode="m" horiz-adv-x="1226" d="M47 803q-1 49 61 79q51 25 102 25q12 0 24 -1q64 -7 65 -54q-2 -29 -4 -55q64 100 153 100h7q184 -4 243 -205q48 115 100 161q49 44 110 44h5q88 -2 147.5 -48t83.5 -119t36 -163q9 -64 8 -130q0 -26 -1 -52q-4 -77 -4 -147v-28q1 -83 1 -142q0 -55 -78 -56 q-84 0 -129 51q-23 25 -21 54q0 10 2.5 87t2.5 162t-4.5 174t-23 147t-48.5 58h-1q-81 0 -157 -249q2 -36 2 -86q0 -62 -3 -144.5t-3 -134.5q0 -41 2 -63q0 -55 -78 -56q-82 0 -129 51q-23 25 -20 54q0 10 2 87t2 162t-4 174t-22.5 147t-49.5 58h-1q-73 0 -144 -210v-101.5 t1 -105.5t2 -119t1 -141q0 -55 -80 -56q-84 0 -129 54q-19 22 -19 49q-12 407 -12 586q0 67 2 102z" />
<glyph unicode="n" horiz-adv-x="784" d="M47 803q-1 49 61 79q51 25 102 25q12 0 24 -1q64 -7 65 -54q-4 -41 -6 -84q72 129 170 129h6q88 -2 147.5 -48t83.5 -119q26 -73 38 -163q9 -62 8 -126q0 -28 -2 -56q-6 -92 -5.5 -175t0.5 -142q0 -55 -75 -56q-84 0 -132 51q-20 25 -20 54q0 10 3 87t3 162t-5 174 t-23.5 147t-49.5 58h-1q-81 0 -158 -260q0 -59 2 -193t2 -224q0 -55 -80 -56q-84 0 -129 54q-19 22 -19 49q-12 407 -12 586q0 67 2 102z" />
<glyph unicode="o" horiz-adv-x="741" d="M22 438q8 98 49.5 187.5t97.5 158t138 100.5q50 19 103 19q33 0 67 -8q129 -31 193 -143q53 -92 53 -198q0 -23 -2 -47q-14 -134 -69 -258q-56 -125 -168 -193q-80 -49 -169 -48q-36 0 -73 8q-86 23 -142 88q-54 64 -70 150q-10 56 -11 116q0 33 3 68zM220 362 q5 -118 61 -143q19 -8 37 -8q66 0 116 108q50 104 50 213q0 28 -3 56q-15 119 -89 119h-5q-76 -4 -124 -116q-43 -101 -44 -207q1 -11 1 -22z" />
<glyph unicode="p" horiz-adv-x="798" d="M55 -297q-9 183 -9 395q0 319 20 705q-2 49 60 79q50 25 103 25q11 0 23 -1q65 -7 65 -54q-4 -45 -6 -80q89 125 202 125q25 0 52 -6q109 -25 163 -113q53 -86 53 -193q0 -108 -29 -221q-29 -108 -78 -186q-80 -127 -198 -154q-28 -6 -54 -6q-84 0 -148 66 q-2 -72 -2 -138q0 -165 11 -292q0 -55 -76 -55q-84 0 -131 51q-20 25 -21 53zM292 362q5 -118 60 -143q19 -8 36 -8q66 0 118 108q50 107 50 218q0 25 -3 51q-17 119 -91 119h-5q-74 -4 -122 -116q-43 -101 -43 -207v-22z" />
<glyph unicode="q" horiz-adv-x="802" d="M24 418q9 92 36.5 175t66.5 144q80 129 197 156q27 6 53 6q83 0 147 -65q18 39 79 60q40 14 76 14q19 0 37 -4q52 -11 52 -52q-43 -552 -43 -906q0 -168 10 -292q0 -55 -78 -55q-84 0 -129 51q-20 25 -20 53q-8 158 -8 363v84q-94 -142 -215 -142q-24 0 -49 6 q-88 20 -140.5 84t-65.5 146q-9 50 -9 104q0 34 3 70zM254 457q-8 -48 -8 -88q0 -56 14 -97q24 -71 81 -71h3q61 4 108.5 84.5t51.5 193.5q2 16 2 45q0 121 -57 146q-15 7 -31 7q-39 0 -80 -41q-59 -56 -84 -179z" />
<glyph unicode="r" horiz-adv-x="722" d="M47 803q-1 49 61 79q51 25 102 25q12 0 24 -1q64 -7 65 -54q-4 -31 -6 -59q35 51 74 77q57 39 123 39q36 1 76 -11q110 -34 145 -134q10 -36 10 -71q-1 -37 -11 -73q-20 -72 -65 -102q-33 -23 -74 -27q-9 -1 -18 -1q-29 0 -57 10q-34 14 -56 51q-16 29 -15 67q0 11 1 23 q74 8 104 39q22 23 22 46q0 8 -3 15q-10 25 -32.5 33t-47.5 -1t-47.5 -23.5t-36.5 -28.5q-70 -74 -104 -215q0 -68 2 -208t2 -230q0 -55 -80 -56q-84 0 -129 54q-21 22 -19 49q-12 407 -12 586q0 67 2 102z" />
<glyph unicode="s" horiz-adv-x="661" d="M16 291q12 25 36 23.5t38 -23.5q29 -43 77 -68.5t91 -25.5q45 2 66.5 24.5t15.5 53t-33 57.5q-14 12 -58 45t-82 70.5t-67 89.5q-28 52 -28 107q0 58 32 118q64 116 187 135q39 6 76 6q39 0 75 -7q70 -13 113 -45t67 -74q19 -35 19 -73q0 -8 -1 -16q-5 -47 -39 -86 t-92 -45q-10 -1 -20 -1q-46 0 -81 24q-39 26 -39 70v9q67 22 67 67v7q-4 37 -45 45q-29 4 -61 -14q-38 -20 -50 -64q-5 -19 -4 -37q0 -24 9 -47q12 -41 50 -72.5t83 -54t88 -49t73.5 -69t36.5 -97.5q1 -11 1 -21q-1 -97 -69 -160q-76 -70 -188 -85q-23 -3 -45 -3 q-63 -1 -117 21q-74 28 -116 76q-44 48 -62 100q-11 30 -10 54q0 19 6 35z" />
<glyph unicode="t" horiz-adv-x="579" d="M-2 757q-1 7 -1 13q-1 33 17 67q19 37 45 37h4h70q14 179 14 225q1 47 61 77q50 24 100 24q12 0 26 -2q64 -8 65 -53q0 -8 -24 -275q96 -2 145 -4q31 0 37 -36q2 -9 2 -19q1 -27 -13 -55q-18 -37 -46 -35q-84 2 -138 4q-16 -142 -17 -267q-1 -52 3 -101q8 -145 50 -145 q6 0 14 4q54 26 67 112q4 27 33 31t39 -23q9 -31 9 -63q0 -49 -22 -99q-36 -82 -107 -128q-56 -36 -113 -36l-29 2q-82 14 -119 79t-49 198q-7 73 -7 172q0 113 9 260q-39 -2 -94 -6q-27 2 -31 42z" />
<glyph unicode="u" horiz-adv-x="774" d="M35 603q2 54 6 142q2 6 2 9.5v8.5v12q1 45 61 74q49 23 98 23q14 0 28 -2q64 -8 65 -51q0 -2 -5 -52t-9.5 -96t-8.5 -117t-4 -127t3 -108.5t15.5 -83t32.5 -32.5h2q79 0 162 176q-5 177 -5 290q0 85 3 134q-1 49 61 79q51 25 102 25q12 0 24 -1q64 -7 65 -54 q-10 -119 -14 -220.5t-4 -162.5t2 -186t2 -215q0 -55 -80 -56q-84 0 -129 54q-20 23 -18 49q-2 57 -3 59q-51 -88 -101 -120q-47 -31 -102 -31h-7q-66 4 -113 34q-43 31 -73 96.5t-41 131t-15 165.5q-3 66 -3 112q0 23 1 41z" />
<glyph unicode="v" horiz-adv-x="671" d="M35 622q2 56 6 146q2 17 2 32q1 44 61 74q50 24 100 25q12 0 26 -2q64 -8 65 -53q0 -2 -4 -45t-7 -84t-8 -103q-6 -64 -7 -118q0 -27 -0.5 -54t0.5 -54q1 -54 7.5 -97t18.5 -66q14 -23 29 -23q35 0 75 130q63 201 103 510l2 6q0 10 8 20.5t22.5 17.5t31 12t32.5 3 t29.5 -8t22.5 -20.5t12 -36.5v-13q0 -45 -12 -127q-14 -94 -44.5 -210.5t-71 -221t-102.5 -175.5q-60 -69 -125 -69h-4q-82 2 -137 41q-43 31 -73 98.5t-41 135t-15 169.5q-3 68 -3 117q0 24 1 43z" />
<glyph unicode="w" horiz-adv-x="1107" d="M35 603q2 54 6 142q2 6 2 9.5v8.5v12q1 45 61 74q49 23 98 23q14 0 28 -2q64 -8 65 -51q0 -2 -5 -52t-9.5 -96t-8.5 -117t-4 -127t3 -108.5t16.5 -83t31.5 -32.5h2q75 0 158 166q-7 68 -7 174.5t7 253.5q-4 57 88 88q44 15 79 15q39 0 65 -19q20 -12 20 -37q0 -2 -4 -45 t-8 -84t-8 -103q-4 -60 -5 -116v-55.5v-54.5q1 -54 7 -97t16 -66q15 -23 30 -23q36 0 77 130q63 201 102 510v6q2 10 10 20.5t22.5 17.5t31 12t33 3t29.5 -8t22.5 -20.5t9.5 -36.5v-14q0 -46 -10 -126q-12 -94 -43 -210.5t-72 -221t-103 -175.5q-60 -69 -127 -69h-4 q-80 2 -135 41q-61 43 -92 148q-56 -105 -112 -147q-50 -37 -108 -38h-12q-64 4 -112 35q-43 31 -73 96.5t-41 131t-15 165.5q-3 66 -3 112q0 23 1 41z" />
<glyph unicode="x" horiz-adv-x="798" d="M23 696q-18 21 -18 49q0 39 34 93q51 78 106 82q25 2 39 -17q35 -47 77 -104.5t86 -115.5t77 -103q113 162 178 288q14 31 42 36t51.5 -8t39 -40t6.5 -49q-20 -82 -219 -358q133 -176 246 -308q36 -38 36 -64q0 -7 -2 -13q-11 -30 -52 -42t-109 -12q-41 0 -81 32 t-101 108l-82 104q-66 -84 -120 -145.5t-91 -90.5q-14 -12 -37 -12t-55 12q-49 18 -49 45q0 11 8 23q2 4 6 8q114 129 237 285z" />
<glyph unicode="y" horiz-adv-x="782" d="M35 603q2 54 6 142q2 17 2 30q0 45 61 74q48 23 98 23q14 0 28 -2q65 -8 65 -51q0 -2 -5 -52t-9.5 -96t-8.5 -117t-4 -127t3 -108.5t16.5 -83t31.5 -32.5h2q81 0 166 184v139t-1 122t-1 96v64q0 47 61 76q51 25 101 25l27 -2q63 -8 63 -53q-4 -61 -7 -206.5t-8 -325 t-11 -306.5q-12 -203 -92 -314q-75 -105 -220 -105h-18q-106 6 -180 75q-60 55 -60 127q0 18 4 37q10 53 49 91q37 36 89 36h5q56 -2 99 -59q-33 -43 -41 -80t3 -56.5t34 -23.5q16 -2 28.5 4t21.5 24.5t15.5 39t11.5 55.5t8 64.5t7 78.5q4 66 8 152q-49 -80 -98 -110 q-46 -29 -99 -29h-7q-66 4 -113 34q-43 31 -73 96.5t-41 131t-15 165.5q-3 66 -3 112q0 23 1 41z" />
<glyph unicode="z" horiz-adv-x="731" d="M16 86v10q0 66 33 115q59 96 213 245.5t213 231.5q-20 1 -42 1q-132 0 -353 -21q-55 0 -57 77q0 84 49 129q25 23 53 21q80 6 167 9t200.5 5t169.5 4q29 -1 42 -29q11 -22 11 -51q0 -7 -1 -14q-3 -37 -11.5 -71.5t-16.5 -53.5q-39 -78 -102.5 -154.5t-117.5 -125.5 t-105.5 -104.5t-71.5 -98.5q43 -2 121.5 -5t114.5 -3t124 6h3q50 0 53 -66v-5q0 -68 -50 -109q-25 -20 -53 -19q-43 -5 -125 -5q-61 0 -143 3q-144 4 -221 4h-45q-50 2 -52 74z" />
<glyph unicode="{" horiz-adv-x="380" d="M23 555v74q43 2 72.5 33.5t29.5 74.5q0 59 -1 132t-1 150t-2 132q0 53 43 87t99 42t116 0q27 -6 31 -22.5t-15 -36.5q-6 -8 -30.5 -19.5t-43 -29t-18.5 -44.5v-411q0 -78 -65 -125q66 -45 65 -125v-412q0 -27 18.5 -43t43 -28.5t30.5 -18.5q18 -20 14.5 -37.5 t-30.5 -21.5q-57 -6 -113.5 -1t-98.5 37.5t-42 86.5v420q0 29 -14.5 52t-37 37.5t-50.5 16.5z" />
<glyph unicode="|" horiz-adv-x="278" d="M57.5 573.5q-0.5 307.5 12.5 577.5q-6 61 65 100q61 33 86 -2q8 -10 8 -26q-29 -383 -20 -1243q2 -53 -47 -58q-53 -6 -78 39q-10 20 -8 43q-18 262 -18.5 569.5z" />
<glyph unicode="}" horiz-adv-x="380" d="M-31 -72.5q-4 17.5 15 37.5q6 6 31.5 18.5t44 29t18.5 42.5v412q0 80 63 125q-63 47 -63 125v411q0 20 -12.5 37t-27.5 24t-31.5 15t-22.5 17q-18 20 -14.5 36.5t32.5 22.5q57 8 113.5 0t99.5 -42t43 -87q0 -59 -2 -199.5t-2 -214.5q0 -43 29.5 -74.5t72.5 -33.5v-74 q-43 -2 -72.5 -32.5t-29.5 -73.5v-420q0 -53 -42 -86t-98.5 -38t-111.5 1q-29 4 -33 21.5z" />
<glyph unicode="~" horiz-adv-x="757" d="M33 481q8 14 24 13q6 0 15.5 -7.5t18.5 -17.5t27.5 -19.5t41.5 -13.5q57 -4 112.5 16.5t95.5 49t100 51t122 20.5q84 -4 128 -71.5t9 -132.5q-8 -14 -25 -9q-6 2 -37.5 30t-76.5 36q-59 10 -115.5 -9.5t-95.5 -48t-97.5 -54t-115.5 -27.5q-82 -2 -125 63.5t-6 130.5z" />
<glyph unicode="&#xa1;" horiz-adv-x="387" d="M43 1001.5q2 51.5 48 85t107.5 30.5t102.5 -42t39 -90t-48 -85t-107.5 -30t-102.5 42t-39 89.5zM68 -10q14 250 15 385t-7 377q2 47 66.5 51t126 -30t57.5 -83q-4 -360 -29 -663q0 -59 -84 -86q-86 -27 -129 10q-18 14 -16 39z" />
<glyph unicode="&#xa2;" horiz-adv-x="724" d="M32.5 578.5q14.5 103.5 61.5 185.5q80 137 225 188q2 49 7 103q-4 68 61 98q57 25 84 -12q8 -14 8 -35q0 -8 -10 -131q55 -2 100 -23q80 -35 108 -110.5t7.5 -144t-66.5 -99.5q-31 -20 -68.5 -24.5t-70.5 8t-52 47.5t-13 88q37 4 62.5 14t37.5 24.5t16.5 29t-1 27.5 t-17.5 21.5t-35.5 9.5t-53.5 -4t-61.5 -23.5t-58.5 -47.5q-45 -53 -67.5 -146.5t-14.5 -179.5t64.5 -139t154.5 -31q35 10 78 58.5t70 99.5q10 23 32.5 27t36.5 -19q20 -27 10 -73t-33.5 -91t-76.5 -83.5t-119 -53.5q2 -68 8 -131q0 -55 -45 -57q-47 0 -73 51q-14 25 -13 55 q-2 39 -4 76q-109 12 -179.5 83t-92 166t-7 198.5z" />
<glyph unicode="&#xa3;" horiz-adv-x="815" d="M40.5 89q-13.5 75 27.5 140q18 27 41 54q47 80 61 151q-49 -2 -100 -10q-20 -2 -25.5 28.5t6.5 60.5t35 28q45 6 86 8q-6 39 -28.5 105.5t-28.5 95.5q-33 150 45 252t229 112q135 8 254 -60.5t139 -183.5q23 -123 -90 -188q-33 -20 -72.5 -23.5t-74.5 8t-55.5 44 t-14.5 80.5q55 6 82 28.5t25 50.5q-4 35 -40 55.5t-83 17.5t-78 -32q-23 -18 -33 -43.5t-13 -50t2 -61.5t11 -63.5t16.5 -72l16.5 -71.5q43 -2 111 -8q23 2 39 -33t14 -71t-23 -36q-20 2 -42.5 5.5t-45 7.5t-39.5 6q1 -117 -73 -193h81.5t69.5 3t55.5 5.5t70.5 7.5t85 7 q61 2 68 -72q4 -82 -54 -137q-33 -33 -73 -33q-96 -10 -255 -2t-255 6q-61 2 -74.5 77z" />
<glyph unicode="&#xa5;" horiz-adv-x="778" d="M29 987q-8 45 53 84t118.5 37t71.5 -41q10 -180 121 -428q180 291 221 422q6 25 47 28t77 -23t28 -75q-25 -133 -236 -467q18 -2 31 -4q23 4 39 -30.5t14 -70.5t-22 -38q-25 4 -67 10t-60 8v-77q39 -2 96 -9q23 4 39 -30.5t14 -71.5t-22 -37q-25 4 -67 10t-58 9 q2 -72 8 -138q0 -45 -57.5 -52t-114.5 22.5t-55 74.5q-2 53 -4 107q-51 -2 -103 -10q-23 0 -27.5 29.5t7.5 60t35 28.5q45 4 84 9v67q-8 14 -13 23q-43 -2 -86 -11q-23 0 -27.5 30t7.5 60.5t35 28.5q10 0 16 2q-127 274 -143 463z" />
<glyph unicode="&#xa7;" horiz-adv-x="485" d="M42.5 611q8.5 48 47.5 91q-16 14 -27 31q-45 82 0.5 158t133.5 98q61 16 112 -1t76 -52t23 -80t-39 -78q-23 -20 -52.5 -25t-54 10t-26.5 50q57 12 59 51q2 33 -35 37q-10 2 -20 0q-37 -6 -52.5 -34.5t2.5 -65.5q10 -20 39 -44t62 -44.5t64.5 -43t56 -51t32.5 -59.5 q19 -82 -49 -145q39 -39 49 -78q6 -35 -2 -67.5t-29.5 -59.5t-53 -46.5t-70.5 -27.5q-49 -10 -96.5 0t-78 36t-49 57.5t-12.5 66.5t35 61q20 20 51 25.5t55.5 -10t26.5 -52.5q-45 -6 -43 -43q0 -35 39 -40q12 -2 27 2q25 4 38 15t16 23.5t-1 25.5t-13.5 24.5t-19.5 19.5 q-14 12 -63 43t-83 59.5t-55 61.5q-29 53 -20.5 101zM182 627q-6 -25 8 -49q17 -36 103 -91q10 23 1 45.5t-30 38.5q-6 4 -82 56z" />
<glyph unicode="&#xa9;" horiz-adv-x="950" d="M29 550q0 185 131 315t315 130t315.5 -130t131.5 -315t-131.5 -316.5t-315.5 -131.5t-315 131.5t-131 316.5zM127 550q0 -144 101.5 -246.5t247 -102.5t246.5 102.5t101 246.5t-101 246.5t-246.5 102.5t-247 -102.5t-101.5 -246.5zM286 562.5q7 62.5 36 111.5 q25 41 60.5 69.5t72.5 40t72.5 11.5t66.5 -13q45 -20 60.5 -63t4 -82t-37.5 -57q-25 -14 -52.5 -15.5t-48 21t-14.5 61.5q18 2 33.5 8.5t22.5 14.5t9 16t-1 15.5t-9 11.5q-10 12 -51 4t-68 -39q-37 -43 -48 -118t20.5 -129t105.5 -36q18 4 44 32t40 56q6 14 18.5 16.5 t20.5 -10.5q25 -45 -24.5 -110.5t-141.5 -67.5q-72 -2 -120 37t-63 95.5t-8 119z" />
<glyph unicode="&#xaa;" horiz-adv-x="339" d="M20 770q0 43 11.5 86t31.5 74q31 51 77 61t79 -22q8 14 31.5 22t44 4t20.5 -20q-12 -164 -12 -309q0 -31 -45 -21q-43 10 -45 39v21q-45 -72 -109 -58q-41 10 -62.5 45t-21.5 78zM121 735q10 -16 26 -14q23 2 40.5 29.5t22.5 61.5t1 64.5t-21 36.5q-43 18 -69 -57 q-27 -80 0 -121z" />
<glyph unicode="&#xab;" d="M16 563q-2 66 50 90q12 6 30 17q156 92 219 123q74 33 154 71q55 33 106 -10q41 -35 15 -70q-8 -8 -21 -16q-59 -27 -95 -45t-60.5 -30.5t-52 -29t-38 -22.5t-53.5 -34.5t-63 -43.5q23 -14 57.5 -36.5t44.5 -30t36 -22.5l39 -22.5t43 -22.5t60.5 -30.5t81.5 -38.5 q49 -27 21 -71q-31 -45 -88 -37q-16 4 -33 12q-80 39 -154 72q-63 31 -219 123q-18 10 -30 16q-51 25 -50 88zM385 563q0 66 51 90q10 6 29 17q156 92 221 123q72 33 152 71q57 33 106 -10q43 -35 14 -70q-6 -8 -20 -16q-51 -25 -81 -39t-60.5 -29.5t-44 -22.5t-38 -22.5 t-35.5 -22.5t-46 -29.5t-58 -39.5q23 -14 58 -36.5t46 -30t35.5 -22.5t38 -22.5t44 -22.5t60.5 -30.5t81 -38.5q51 -27 20 -71q-31 -45 -86 -37q-18 4 -34 12q-80 39 -152 72q-66 31 -221 123q-18 10 -29 16q-51 25 -51 88z" />
<glyph unicode="&#xad;" horiz-adv-x="0" />
<glyph unicode="&#xae;" horiz-adv-x="950" d="M29 550q0 185 131 315t315 130t315.5 -130t131.5 -315t-131.5 -316.5t-315.5 -131.5t-315 131.5t-131 316.5zM127 550q0 -144 101.5 -246.5t247 -102.5t246.5 102.5t101 246.5t-101 246.5t-246.5 102.5t-247 -102.5t-101.5 -246.5zM299 670q10 49 71.5 76.5t133.5 23.5 q57 -4 94 -30.5t46 -61.5t2 -72t-33.5 -66.5t-65.5 -41.5q66 -90 100 -115q20 -25 -20 -45q-45 -20 -70 8q-18 16 -51 66.5t-49 70.5q0 -74 4 -133q0 -16 -22.5 -19t-45 8t-22.5 28q-6 129 2 301q-16 -10 -27 -23q-20 -18 -36.5 -10t-10.5 35zM463 578q59 -25 90 30 q27 47 -10 78q-14 14 -43 16q-12 2 -29 0q-6 -81 -8 -124z" />
<glyph unicode="&#xb0;" horiz-adv-x="387" d="M20 852q0 72 50.5 122t122 50t122 -50t50.5 -122t-50.5 -122t-122 -50t-122 50t-50.5 122zM94 852q0 -41 29 -69.5t69.5 -28.5t69.5 28.5t29 69.5t-29 69.5t-69.5 28.5t-69.5 -28.5t-29 -69.5z" />
<glyph unicode="&#xb2;" horiz-adv-x="352" d="M25 682q-5 31 14 59q12 20 35.5 45t46 45.5t43 43t35 50t16.5 56.5q4 55 -47 61q-41 4 -53 -24q0 -2 -2 -6q-2 -29 45 -33q6 -41 -29 -53.5t-63 6.5q-47 29 -37 80q8 45 56 73.5t100.5 29.5t92 -35t35.5 -103q-2 -41 -24.5 -78t-49 -60.5t-55 -51t-41.5 -48.5 q50 1 154 11q35 0 29 -45q-8 -49 -45 -56q-4 -2 -9 -2q-41 -4 -107.5 0t-107.5 2q-27 2 -32 33z" />
<glyph unicode="&#xb3;" horiz-adv-x="354" d="M29 772q0 33 24 35q20 2 25 -19q14 -47 51 -61t76 16q20 20 22 48t-20.5 44.5t-63.5 6.5q-4 -2 -6 0t-2 9v12t1 14.5t1 11.5q2 0 2 2t2 2q4 6 13.5 12t16.5 11.5t14.5 12.5t12.5 20.5t7 31.5q2 55 -43 61q-39 4 -47 -26q-2 -2 -2 -4q-2 -29 45 -33q6 -41 -29 -53.5 t-63 6.5q-47 29 -37 80q8 51 61 80.5t113.5 19.5t85.5 -59q41 -80 -25 -158q63 -23 62.5 -105.5t-58.5 -125.5q-47 -29 -100 -29t-95 38t-44 99z" />
<glyph unicode="&#xb6;" horiz-adv-x="700" d="M0 920q0 49 24.5 91t65.5 65.5t90 23.5h514v-111h-127v-674h-110v674h-78v-960h-111v710h-88q-74 0 -127 53.5t-53 127.5z" />
<glyph unicode="&#xb7;" horiz-adv-x="223" d="M12 700q0 41 29 70t70 29t69.5 -29t28.5 -70t-28.5 -69.5t-69.5 -28.5t-70 28.5t-29 69.5z" />
<glyph unicode="&#xb9;" horiz-adv-x="251" d="M23 1020q4 18 110 80q2 0 4 2l6 4v-2q25 12 51.5 9t26.5 -21q-25 -297 -14 -424q0 -18 -24.5 -21.5t-48 9t-23.5 30.5q-6 135 0 307q-16 -12 -33 -26q-29 -25 -50.5 0.5t-4.5 52.5z" />
<glyph unicode="&#xba;" horiz-adv-x="354" d="M26.5 849q6.5 71 29 135.5t68.5 102t99 21.5q92 -27 104.5 -153t-50 -229t-154.5 -77q-51 14 -77 71.5t-19.5 128.5zM112.5 818q1.5 -73 26.5 -83q39 -20 68 66q33 109 12 190q-10 41 -35 39q-33 -2 -53 -70.5t-18.5 -141.5z" />
<glyph unicode="&#xbb;" d="M31 344q6 8 20 16q43 20 73 35t54.5 27t44 22.5t32.5 18.5t32.5 20.5t32 20.5t42 26.5t52.5 32.5q-23 16 -59 39t-46 30t-34.5 22.5t-38 22.5t-44 22.5t-61.5 29.5t-80 39q-51 27 -20 72q29 43 86 34q18 -2 35 -10q78 -39 151 -71q63 -31 221 -123q4 -2 6 -4t7.5 -4.5 t8.5 -4.5t7 -4q51 -24 49 -90q2 -63 -49 -88q-10 -6 -29 -16q-158 -92 -221 -123q-74 -33 -151 -72q-57 -33 -107 10q-43 35 -14 70zM399 344q8 8 21 16q59 27 95 45.5t60.5 31t52 28.5t38 22.5t53.5 35t63 40.5q-23 16 -57.5 39t-44.5 30t-36 22.5t-39 22.5t-43 22.5 t-60.5 29.5t-81.5 39q-49 27 -21 72q31 43 86 34q18 -2 35 -10q80 -39 152 -71q66 -31 221 -123l9 -6t9.5 -5.5t10.5 -5.5q53 -25 51 -90q2 -63 -51 -88q-10 -6 -29 -16q-156 -92 -221 -123q-72 -33 -152 -72q-57 -33 -106 10q-41 35 -15 70z" />
<glyph unicode="&#xbf;" horiz-adv-x="696" d="M17.5 250q9.5 82 66.5 147q14 18 49 54t52.5 60t41 61.5t32.5 81.5t9 98q4 57 74 59q76 2 113 -47q16 -22 14 -49q0 -84 -20.5 -150.5t-49 -107.5t-57.5 -73t-51.5 -65.5t-24.5 -68.5q-8 -113 78 -139q68 -23 115 20q23 18 24 45q2 18 -8 34.5t-35.5 29t-62.5 16.5 q-6 47 14.5 80t55 45t75.5 8t74 -22q111 -68 88 -189q-20 -115 -136 -182.5t-251 -61.5q-90 4 -158.5 51.5t-99.5 115t-21.5 149.5zM211 1001.5q2 51.5 48 85t107.5 30.5t102.5 -42t39 -90t-48 -85t-107.5 -30t-102.5 42t-39 89.5z" />
<glyph unicode="&#xc0;" d="M-8 164q51 133 220 441t218 456q2 4 6 8q18 43 113.5 41t140.5 -49q23 -74 83.5 -295t116.5 -390t109 -257q14 -41 -32.5 -84t-99 -47t-72.5 30q-61 82 -119 246q-66 2 -266 -8q-27 0 -31 41t16.5 80t48.5 37q78 2 183 0q-2 10 -92 334q-31 -61 -118 -223.5t-141.5 -278 t-87.5 -221.5q-27 -33 -79 -19t-95 66.5t-22 91.5zM412 1339q-20 45 14.5 76t83.5 2q74 -47 170 -149q33 -29 30.5 -54.5t-61.5 -11.5q-53 10 -134 51t-103 86z" />
<glyph unicode="&#xc1;" d="M-8 164q51 133 220 441t218 456q2 4 6 8q18 43 113.5 41t140.5 -49q23 -74 65 -224.5t75.5 -271.5t79.5 -250t89 -196q14 -41 -32.5 -84t-99 -47t-72.5 30q-61 82 -119 246q-66 2 -266 -8q-27 0 -31 41t16.5 80t48.5 37q78 2 183 0q-2 10 -92 334q-31 -61 -118 -223.5 t-141.5 -278t-87.5 -221.5q-27 -33 -79 -19t-95 66.5t-22 91.5zM425 1213.5q-3 25.5 30 54.5q98 102 172 149q23 14 46 13.5t36.5 -15t19.5 -34t-6 -42.5q-20 -45 -102 -86t-134 -51q-59 -14 -62 11.5z" />
<glyph unicode="&#xc2;" d="M-8 164q51 133 220 441t218 456q2 4 6 8q18 43 113.5 41t140.5 -49q23 -74 83.5 -295t116.5 -390t109 -257q14 -41 -32.5 -84t-99 -47t-72.5 30q-61 82 -119 246q-66 2 -266 -8q-27 0 -31 41t16.5 80t48.5 37q78 2 183 0q-2 10 -92 334q-31 -61 -118 -223.5t-141.5 -278 t-87.5 -221.5q-27 -33 -79 -19t-95 66.5t-22 91.5zM338 1241l18 21q31 29 94.5 99.5t96.5 98.5q14 14 33.5 12t29.5 -20q16 -25 39 -55.5t34 -47t34.5 -45t56.5 -63.5q35 -43 -8 -74q-45 -31 -96 0q-15 11 -25 25q-33 37 -56.5 65.5t-31.5 36.5l-106 -116q-47 -41 -95 -9 q-45 31 -18 72z" />
<glyph unicode="&#xc3;" d="M-8 164q51 133 220 441t218 456q2 4 6 8q18 43 113.5 41t140.5 -49q23 -74 83.5 -295t116.5 -390t109 -257q14 -41 -32.5 -84t-99 -47t-72.5 30q-61 82 -119 246q-66 2 -266 -8q-27 0 -31 41t16.5 80t48.5 37q78 2 183 0q-2 10 -92 334q-31 -61 -118 -223.5t-141.5 -278 t-87.5 -221.5q-27 -33 -79 -19t-95 66.5t-22 91.5zM248 1384q8 12 24 13q6 0 14.5 -8.5t16.5 -17.5t25.5 -17.5t40.5 -12.5q43 -4 77.5 4.5t59 21.5t49.5 27.5t62.5 23.5t84.5 7q82 -4 122 -67.5t7 -124.5q-6 -14 -22 -8q-4 2 -35 27.5t-72 33.5q-55 8 -97 -2t-66.5 -28.5 t-68.5 -36t-97 -17.5q-78 -4 -119 58.5t-6 123.5z" />
<glyph unicode="&#xc4;" d="M-8 164q51 133 220 441t218 456q2 4 6 8q18 43 113.5 41t140.5 -49q23 -74 83.5 -295t116.5 -390t109 -257q14 -41 -32.5 -84t-99 -47t-72.5 30q-61 82 -119 246q-66 2 -266 -8q-27 0 -31 41t16.5 80t48.5 37q76 2 183 0q-2 10 -92 334q-31 -59 -118 -222.5t-141.5 -279 t-87.5 -221.5q-27 -33 -79 -19t-95 66.5t-22 91.5zM272 1321q2 51 44 85t97.5 31t93.5 -42t36 -89.5t-44 -84t-98 -31.5q-37 2 -67.5 20.5t-47 48t-14.5 62.5zM643 1321q2 35 21.5 61.5t51.5 41t68 12.5q57 -2 95.5 -41t35 -89.5t-44.5 -84t-97 -30.5t-94 41t-36 89z" />
<glyph unicode="&#xc5;" d="M-8 164q51 133 220 441t218 456q2 4 6 8q18 43 113.5 41t140.5 -49q23 -74 83.5 -295t116.5 -390t109 -257q14 -41 -32.5 -84t-99 -47t-72.5 30q-61 82 -119 246q-66 2 -266 -8q-27 0 -31 41t16.5 80t48.5 37q78 2 183 0q-2 10 -92 334q-31 -61 -118 -223.5t-141.5 -278 t-87.5 -221.5q-27 -33 -79 -19t-95 66.5t-22 91.5zM377 1312.5q0 71.5 51 123t123 51.5q47 0 86 -23.5t62.5 -63.5t23.5 -87q0 -72 -50 -122t-122 -50t-123 50t-51 121.5zM461 1313q0 -23 12 -43.5t32.5 -32.5t45.5 -12q37 0 62.5 25.5t25.5 62.5t-25.5 63.5t-62.5 26.5 t-63.5 -26.5t-26.5 -63.5z" />
<glyph unicode="&#xc6;" horiz-adv-x="1576" d="M-8 164q51 133 220 441t218 456q2 4 6 8q18 43 113.5 41t140.5 -49q23 -74 72 -253t67 -241q6 221 13 373q-8 -2 -13 -2q-59 -6 -82.5 32t-8 85t56.5 63q31 25 170 14.5t277 -25.5t257 11q59 0 64 -57q4 -63 -52 -107q-31 -23 -69 -22q-76 -2 -102.5 -2t-119 6t-133.5 8 q-12 -162 -18 -256q135 -6 330 2q27 0 44 -37t12 -72.5t-36 -35.5q-113 -8 -360 -8v-7q-10 -231 20 -305q14 -33 67.5 -39t117 10.5t121 40t90.5 44.5q43 29 73 -29q37 -66 -2 -125q-27 -39 -80 -55q-70 -29 -156.5 -48.5t-187 -23.5t-164.5 29q-45 -37 -96 -42t-67 31 q-61 82 -119 246q-66 2 -266 -8q-27 0 -31 41t16.5 80t48.5 37q78 2 183 0q-2 10 -92 334q-31 -61 -118 -223.5t-141.5 -278t-87.5 -221.5q-27 -33 -79 -19t-95 66.5t-22 91.5z" />
<glyph unicode="&#xc7;" horiz-adv-x="864" d="M16 524q2 143 61.5 274.5t167 218.5t232.5 93q90 4 168 -26.5t123 -82t65.5 -109.5t-1 -116.5t-82.5 -93.5q-33 -20 -74 -23.5t-76 8t-55.5 44t-12.5 80.5q76 8 98.5 47t-11 72.5t-99.5 31.5q-115 0 -188.5 -134t-69.5 -308q2 -76 24.5 -137.5t57.5 -96.5t77 -56.5 t87 -18t86 20.5t73.5 57t51.5 96q6 45 51 47q47 2 59 -47q4 -16 2 -39q-6 -78 -38.5 -142.5t-81.5 -106.5t-110.5 -64.5t-129.5 -22.5l-8 -58q61 -4 94 -43q25 -29 27 -65q2 -33 -15 -68q-16 -31 -55 -56.5t-84 -22t-68 48.5q98 12 127 69q6 14 7 25q0 6 -4 12 q-18 18 -74 10q-6 -2 -15 0q-16 2 -27 16.5t-9 32.5l16 105q-158 31 -263.5 167t-103.5 361z" />
<glyph unicode="&#xc8;" horiz-adv-x="847" d="M4 1009.5q-2 32.5 14.5 64.5t47.5 44q31 25 170 14.5t276 -25.5t256 11q61 0 66 -57q2 -63 -54 -107q-31 -23 -67 -22q-76 -2 -102.5 -2t-119 6t-133.5 8q-14 -162 -20 -256q137 -6 332 2q27 0 44 -37t11 -72.5t-35 -35.5q-115 -8 -360 -8v-7q-10 -231 18 -305 q25 -47 104.5 -39.5t163.5 37t127 58.5t76 -29q37 -66 -4 -125q-27 -39 -80 -55q-82 -33 -186.5 -55.5t-217 -12.5t-159.5 70q-37 49 -55.5 137t-18.5 167v150q6 252 15 412q-10 -2 -15 -2q-43 -6 -67.5 16.5t-26.5 55zM330 1339q-20 45 14.5 76t83.5 2q72 -47 170 -149 q33 -29 29.5 -54.5t-60.5 -11.5q-53 10 -134 51t-103 86z" />
<glyph unicode="&#xc9;" horiz-adv-x="847" d="M4 1009.5q-2 32.5 14.5 64.5t47.5 44q31 25 170 14.5t276 -25.5t256 11q61 0 66 -57q2 -63 -54 -107q-31 -23 -67 -22q-76 -2 -102.5 -2t-119 6t-133.5 8q-14 -162 -20 -256q137 -6 332 2q27 0 44 -37t11 -72.5t-35 -35.5q-115 -8 -360 -8v-7q-10 -231 18 -305 q25 -47 104.5 -39.5t163.5 37t127 58.5t76 -29q37 -66 -4 -125q-27 -39 -80 -55q-82 -33 -186.5 -55.5t-217 -12.5t-159.5 70q-37 49 -55.5 137t-18.5 167v150q6 252 15 412q-10 -2 -15 -2q-43 -6 -67.5 16.5t-26.5 55zM398.5 1213.5q-3.5 25.5 29.5 54.5q98 102 170 149 q49 29 83.5 -2t14.5 -76q-23 -45 -103.5 -86t-133.5 -51q-57 -14 -60.5 11.5z" />
<glyph unicode="&#xca;" horiz-adv-x="847" d="M4 1009.5q-2 32.5 14.5 64.5t47.5 44q31 25 170 14.5t276 -25.5t256 11q61 0 66 -57q2 -63 -54 -107q-31 -23 -67 -22q-76 -2 -102.5 -2t-119 6t-133.5 8q-14 -162 -20 -256q137 -6 332 2q27 0 44 -37t11 -72.5t-35 -35.5q-115 -8 -360 -8v-7q-10 -231 18 -305 q25 -47 104.5 -39.5t163.5 37t127 58.5t76 -29q37 -66 -4 -125q-27 -39 -80 -55q-82 -33 -186.5 -55.5t-217 -12.5t-159.5 70q-37 49 -55.5 137t-18.5 167v150q6 252 15 412q-10 -2 -15 -2q-43 -6 -67.5 16.5t-26.5 55zM250 1241q6 12 18 21q31 29 94.5 99.5t96.5 98.5 q14 14 33.5 12t29.5 -20q16 -25 39 -55.5t34 -47t34.5 -45t56.5 -63.5q37 -43 -8 -74t-96 0q-14 10 -25 25q-33 37 -55.5 65.5t-30.5 36.5l-109 -116q-45 -41 -94 -9q-45 31 -18 72z" />
<glyph unicode="&#xcb;" horiz-adv-x="847" d="M4 1009.5q-2 32.5 14.5 64.5t47.5 44q31 25 170 14.5t276 -25.5t256 11q61 0 66 -57q2 -63 -54 -107q-31 -23 -67 -22q-76 -2 -102.5 -2t-119 6t-133.5 8q-14 -162 -20 -256q137 -6 332 2q27 0 44 -37t11 -72.5t-35 -35.5q-115 -8 -360 -8v-7q-10 -231 18 -305 q25 -47 104.5 -39.5t163.5 37t127 58.5t76 -29q37 -66 -4 -125q-27 -39 -80 -55q-82 -33 -186.5 -55.5t-217 -12.5t-159.5 70q-37 49 -55.5 137t-18.5 167v150q6 252 15 412q-10 -2 -15 -2q-43 -6 -67.5 16.5t-26.5 55zM145 1321q2 51 44 85t98.5 31t94.5 -42t35 -89.5 t-44 -84t-99 -31.5q-37 2 -67.5 20.5t-47 48t-14.5 62.5zM516 1321q2 51 44 85t98.5 31t94.5 -42t34.5 -89.5t-44.5 -84t-98 -31.5q-37 2 -66.5 20.5t-47 48t-15.5 62.5z" />
<glyph unicode="&#xcc;" horiz-adv-x="356" d="M47 1339q-20 45 14.5 76t83.5 2q74 -47 170 -149q33 -29 31 -54.5t-61 -11.5q-29 6 -75 23.5t-96.5 50.5t-66.5 63zM59 100q-20 369 9 914q-2 45 61.5 74.5t126.5 21.5t63 -51q-2 -18 -8 -98t-8 -103.5t-8 -97.5t-7 -104.5t-5 -97t-5.5 -104.5t-2.5 -97.5t0 -103.5 t4.5 -97.5t7.5 -102.5q0 -43 -58.5 -50t-116 21.5t-53.5 75.5z" />
<glyph unicode="&#xcd;" horiz-adv-x="356" d="M41 1213.5q-2 25.5 31 54.5q96 102 170 149q49 29 83.5 -2t14.5 -76q-23 -45 -103.5 -86t-134.5 -51q-59 -14 -61 11.5zM59 100q-20 369 11 914q-2 45 60.5 74.5t127 21.5t64.5 -51q-2 -18 -9.5 -98t-9.5 -103.5t-7 -97.5t-7 -104.5t-5 -97t-4 -104.5t-2.5 -97.5 t0 -103.5t3.5 -97.5t6 -102.5q0 -43 -57.5 -50t-115 21.5t-55.5 75.5z" />
<glyph unicode="&#xce;" horiz-adv-x="356" d="M4 1241l19 21q33 29 95 99.5t95 98.5q14 14 34.5 12t28.5 -20q14 -18 28.5 -38.5t23 -33t20.5 -29t23.5 -30.5t29 -34.5t39.5 -45.5q37 -43 -8 -74t-96 0q-14 10 -25 25q-25 27 -42 48.5t-26.5 32.5t-17.5 21l-108 -116q-45 -41 -94 -9q-45 31 -19 72zM57 100 q-18 369 11 914q-2 45 61.5 74.5t126.5 21.5t63 -51q-2 -18 -8 -98t-8 -103.5t-8 -97.5t-7 -104.5t-5 -97t-5.5 -104.5t-2.5 -97.5t0 -103.5t4.5 -97.5t5.5 -102.5q0 -43 -57.5 -50t-115 21.5t-55.5 75.5z" />
<glyph unicode="&#xcf;" horiz-adv-x="354" d="M-106 1321q2 51 44 85t97 30q37 -2 67.5 -20.5t47 -47t16.5 -63.5q-4 -49 -45 -83t-98 -32q-37 2 -67 20.5t-47.5 48t-14.5 62.5zM59 100q-20 369 11 914q-2 45 60.5 74.5t127 21.5t64.5 -51q-2 -18 -9.5 -98t-9.5 -103.5t-7 -97.5t-7 -104.5t-6 -97t-4 -104.5 t-1.5 -97.5t0 -103.5t3.5 -97.5t6 -102.5q0 -43 -57.5 -50t-115 21.5t-55.5 75.5zM265 1321q3 51 44 85t97.5 31t94.5 -42t36 -89.5t-44 -84t-98.5 -30.5t-94.5 41t-35 89z" />
<glyph unicode="&#xd0;" horiz-adv-x="1005" d="M10 856q23 94 115 156.5t221 85.5q127 20 231.5 2.5t177 -69.5t125 -124.5t77 -162t29.5 -181.5t-15.5 -182t-57 -165t-98 -130t-135.5 -76q-119 -35 -266 19q-12 -20 -50 -24.5t-76 4.5t-66.5 34t-26.5 53q-10 166 -11 348l-114 -2q-53 2 -50 60q6 59 58 84q20 10 43 8 l65 -2q4 121 11 262q-35 -25 -64 -57q-55 -49 -97 -27.5t-26 86.5zM412 215q182 -68 280 86q84 133 58 324q-31 201 -162 280q-64 39 -142 39q-20 -233 -26 -358h74q61 0 84 -58q23 -51 -17 -71q-12 -4 -29 -4l-118 -2q-4 -125 -2 -236z" />
<glyph unicode="&#xd1;" horiz-adv-x="899" d="M59 100q-20 369 11 914q-2 37 43 64.5t96 30.5t88 -11q14 -6 27 -17q14 -6 34.5 -36.5t40 -72.5t45 -104.5t47 -120t50 -134t53.5 -132.5q0 223 18 533q-4 55 84 84q94 31 146 -2q20 -12 20 -37q0 -18 -7 -98t-9 -103.5t-7 -97.5t-7.5 -104.5t-6.5 -97t-4 -104.5 t-2 -97.5t0 -103.5t4 -97.5t6 -100.5q-2 -53 -78.5 -52t-123.5 42q-29 14 -47 41q-43 41 -83 118t-67 151.5t-66.5 184t-70.5 179.5q-29 -397 -6 -666q0 -43 -57.5 -50t-115 21.5t-55.5 75.5zM154 1384q8 12 22 13q6 0 32.5 -26t65.5 -30q51 -4 93.5 8.5t67 31t70.5 32.5 t103 12q80 -4 121 -67.5t8 -124.5q-8 -14 -22 -8q-6 2 -36 27.5t-73 33.5q-55 8 -97 -2t-66.5 -28.5t-67.5 -36t-96 -17.5q-78 -4 -119 58.5t-6 123.5z" />
<glyph unicode="&#xd2;" horiz-adv-x="841" d="M21.5 377q-9.5 90 5 181t43 181t78 163t107.5 126t133 71.5t155 0.5q84 -20 144.5 -76.5t90 -130.5t40.5 -164t-4 -182t-45 -181.5t-81 -162t-111.5 -124.5t-139.5 -70.5t-163 1.5q-78 20 -133 74.5t-82.5 128.5t-37 164zM252 483.5q-6 -98.5 11.5 -175.5t53.5 -95 q100 -45 172 135t60.5 377.5t-111.5 189.5q-51 -4 -94 -71.5t-64.5 -164.5t-27.5 -195.5zM328 1381q4 22 19 34t37 15.5t48 -13.5q72 -47 170 -149q33 -29 29.5 -54.5t-60.5 -11.5q-53 10 -134 51t-103 86q-10 20 -6 42z" />
<glyph unicode="&#xd3;" horiz-adv-x="841" d="M21.5 377q-9.5 90 5 181t43 181t78 163t107.5 126t133 71.5t155 0.5q84 -20 144.5 -76.5t90 -130.5t40.5 -164t-4 -182t-45 -181.5t-81 -162t-111.5 -124.5t-139.5 -70.5t-163 1.5q-78 20 -133 74.5t-82.5 128.5t-37 164zM252 483.5q-6 -98.5 11.5 -175.5t53.5 -95 q100 -45 172 135t60.5 377.5t-111.5 189.5q-51 -4 -94 -71.5t-64.5 -164.5t-27.5 -195.5zM325 1213.5q-3 25.5 29 54.5q98 102 172 149q47 29 82 -2t15 -76t-102.5 -86t-133.5 -51q-59 -14 -62 11.5z" />
<glyph unicode="&#xd4;" horiz-adv-x="841" d="M21.5 377q-9.5 90 5 181t43 181t78 163t107.5 126t133 71.5t155 0.5q84 -20 144.5 -76.5t90 -130.5t40.5 -164t-4 -182t-45 -181.5t-81 -162t-111.5 -124.5t-139.5 -70.5t-163 1.5q-78 20 -133 74.5t-82.5 128.5t-37 164zM252 483.5q-6 -98.5 11.5 -175.5t53.5 -95 q100 -45 172 135t60.5 377.5t-111.5 189.5q-51 -4 -94 -71.5t-64.5 -164.5t-27.5 -195.5zM260 1241q6 12 19 21q31 29 93 99.5t95 98.5q14 14 34.5 12t28.5 -20q18 -25 40 -55.5t34 -47t35 -45t55 -63.5q37 -43 -6 -74q-47 -31 -96 0q-15 11 -27 25q-33 37 -55.5 65.5 t-30.5 36.5l-106 -116q-47 -41 -97 -9q-45 31 -16 72z" />
<glyph unicode="&#xd5;" horiz-adv-x="841" d="M21.5 377q-9.5 90 5 181t43 181t78 163t107.5 126t133 71.5t155 0.5q84 -20 144.5 -76.5t90 -130.5t40.5 -164t-4 -182t-45 -181.5t-81 -162t-111.5 -124.5t-139.5 -70.5t-163 1.5q-78 20 -133 74.5t-82.5 128.5t-37 164zM135 1384q8 12 23 13q6 0 32.5 -26t63.5 -30 q45 -4 79 4.5t58.5 21.5t49 27.5t62.5 23.5t87 7q80 -4 121 -67.5t8 -124.5q-8 -14 -23 -8q-6 2 -36.5 27.5t-71.5 33.5q-55 8 -97 -2t-67 -28.5t-69 -36t-97 -17.5q-78 -4 -118 58.5t-5 123.5zM252 483.5q-6 -98.5 11.5 -175.5t53.5 -95q100 -45 172 135t60.5 377.5 t-111.5 189.5q-51 -4 -94 -71.5t-64.5 -164.5t-27.5 -195.5z" />
<glyph unicode="&#xd6;" horiz-adv-x="841" d="M21.5 377q-9.5 90 5 181t43 181t78 163t107.5 126t133 71.5t155 0.5q84 -20 144.5 -76.5t90 -130.5t40.5 -164t-4 -182t-45 -181.5t-81 -162t-111.5 -124.5t-139.5 -70.5t-163 1.5q-78 20 -133 74.5t-82.5 128.5t-37 164zM183 1321q3 51 44 85t97.5 31t94.5 -42t36 -89.5 t-44 -84t-98.5 -30.5t-94.5 41t-35 89zM252 483.5q-6 -98.5 11.5 -175.5t53.5 -95q100 -45 172 135t60.5 377.5t-111.5 189.5q-51 -4 -94 -71.5t-64.5 -164.5t-27.5 -195.5zM555 1321q2 51 44 85t97.5 31t94 -42t35.5 -89.5t-44 -84t-97 -30.5t-94 41t-36 89z" />
<glyph unicode="&#xd7;" horiz-adv-x="557" d="M35 776q23 55 63 49q16 -2 29 -14q63 -68 133 -147q18 18 113 108q41 51 108 23q55 -23 49 -64q-2 -16 -14 -29q-66 -61 -158 -143q41 -39 154 -135q41 -39 2 -74q-43 -37 -96 -12l-29 20q-66 57 -127 109q-39 -39 -133 -150q-39 -41 -74 0q-37 41 -10 97q6 14 18 26 q55 63 101 117q-18 18 -107 109q-51 43 -22 110z" />
<glyph unicode="&#xd8;" horiz-adv-x="849" d="M29.5 337q-15.5 112 1 225.5t61.5 222t109.5 187.5t156 117t189.5 11q31 -8 59 -21l8 11q25 55 105 55q68 0 76 -39q2 -14 -7 -31q-29 -45 -59 -92q59 -78 82 -190.5t9.5 -228t-59.5 -228.5t-114.5 -195t-165 -119.5t-202.5 -11.5q-47 12 -86 37q-12 -27 -23 -51 q-27 -51 -76 -25q-47 25 -41 78q2 18 13 35q14 29 28 63q-49 78 -64.5 190zM256 463q111 209 242 432q-23 22 -56 20q-80 -4 -131 -146t-55 -306zM289 248q14 -27 33 -35q66 -29 122 48t84.5 201t24.5 243q-160 -262 -264 -457z" />
<glyph unicode="&#xd9;" horiz-adv-x="831" d="M41 596q2 100 5 163.5t9 149.5t8 105q-4 55 87 84q92 31 143 -2q23 -14 22 -37q-2 -4 -4 -23q-82 -840 15 -843q45 -2 100 58t98 148q0 256 19 615q-2 45 61.5 74.5t127 21.5t63.5 -51q-2 -18 -8.5 -98t-8.5 -105t-8 -98.5t-7 -104t-5 -97.5t-5 -104.5t-2 -98t0 -104.5 t4 -96.5t7 -101.5q0 -43 -58.5 -50t-116 21.5t-52.5 73.5q-5 41 -5 86q-106 -178 -245 -172q-66 2 -113 35q-39 29 -66.5 84t-41 135t-19.5 156t-4 176zM271.5 1394.5q11.5 26.5 38 34t61.5 -11.5q74 -47 170 -149q33 -29 30.5 -54.5t-61.5 -11.5q-53 10 -134 51t-104 86 q-12 29 -0.5 55.5z" />
<glyph unicode="&#xda;" horiz-adv-x="831" d="M41 596q2 100 5 163.5t9 149.5t8 105q-4 55 87 84q92 31 143 -2q23 -14 22 -37q-2 -4 -4 -23q-82 -840 15 -843q45 -2 100 58t98 148q0 256 19 615q-2 45 61.5 74.5t127 21.5t63.5 -51q-2 -18 -8.5 -98t-8.5 -105t-8 -98.5t-7 -104t-5 -97.5t-5 -104.5t-2 -98t0 -104.5 t4 -96.5t7 -101.5q0 -43 -58.5 -50t-116 21.5t-52.5 73.5q-5 41 -5 86q-106 -178 -245 -172q-66 2 -113 35q-39 29 -66.5 84t-41 135t-19.5 156t-4 176zM321.5 1213.5q-2.5 25.5 28.5 54.5q98 102 172 149q49 29 84 -2t15 -76q-23 -45 -104 -86t-134 -51q-59 -14 -61.5 11.5 z" />
<glyph unicode="&#xdb;" horiz-adv-x="831" d="M41 596q2 100 5 163.5t9 149.5t8 105q-4 55 87 84q92 31 143 -2q23 -14 22 -37q-2 -4 -4 -23q-82 -840 15 -843q45 -2 100 58t98 148q0 256 19 615q-2 45 61.5 74.5t127 21.5t63.5 -51q-2 -18 -8.5 -98t-8.5 -105t-8 -98.5t-7 -104t-5 -97.5t-5 -104.5t-2 -98t0 -104.5 t4 -96.5t7 -101.5q0 -43 -58.5 -50t-116 21.5t-52.5 73.5q-5 43 -5 86q-106 -178 -245 -172q-66 2 -113 35q-39 29 -66.5 84t-41 135t-19.5 156t-4 176zM219 1241l19 21q31 29 94 99.5t96 98.5q14 14 33.5 12t30.5 -20q16 -25 38.5 -55.5t33.5 -47t35 -45t56 -63.5 q35 -43 -8 -74q-47 -31 -96 0q-15 11 -25 25q-27 27 -43 48.5t-25 32.5t-20 21l-106 -116q-47 -41 -94 -9q-45 31 -19 72z" />
<glyph unicode="&#xdc;" horiz-adv-x="831" d="M41 596q2 100 5 163.5t9 149.5t8 105q-4 55 87 84q92 31 143 -2q23 -14 22 -37q-2 -4 -4 -23q-82 -840 15 -843q45 -2 100 58t98 148q0 256 19 615q-2 45 61.5 74.5t127 21.5t63.5 -51q-2 -18 -8.5 -98t-8.5 -105t-8 -98.5t-7 -104t-5 -97.5t-5 -104.5t-2 -98t0 -104.5 t4 -96.5t7 -101.5q0 -43 -58.5 -50t-116 21.5t-52.5 73.5q-5 41 -5 86q-106 -178 -245 -172q-66 2 -113 35q-39 29 -66.5 84t-41 135t-19.5 156t-4 176zM139 1321q2 51 44 85t98 30q37 -2 67.5 -20.5t47 -47t16.5 -63.5q-4 -49 -45 -83t-97.5 -31t-94.5 41t-36 89zM510 1321 q2 35 21.5 61.5t52 41t69.5 12.5q55 -2 93 -41t36 -89.5t-44 -84t-98 -30.5t-94 41t-36 89z" />
<glyph unicode="&#xdd;" horiz-adv-x="720" d="M-4 987q-8 45 53.5 84t118.5 37t72 -41q10 -180 120 -430q180 293 222 424q6 25 47 28t76.5 -23t27.5 -75q-29 -160 -299 -567q-6 -201 8 -369q0 -45 -57 -52t-114.5 22.5t-55.5 74.5q-8 139 -8 291l-4 8q-55 100 -100.5 209t-73 208t-33.5 171zM279.5 1213.5 q-3.5 25.5 29.5 54.5q98 102 172 149q49 29 84 -2t15 -76q-23 -45 -104 -86t-134 -51q-59 -14 -62.5 11.5z" />
<glyph unicode="&#xdf;" horiz-adv-x="888" d="M53 573q8 383 228 492q152 76 329 -6q145 -66 195 -189q14 -35 18 -69q13 -146 -141 -236q106 -49 161.5 -140t24.5 -210q-35 -141 -158.5 -194.5t-231 -3t-101.5 160.5q145 -41 223 47q63 68 27 150q-43 102 -207 104q-20 0 -33.5 35t-5.5 69.5t39 34.5q94 10 140 55.5 t44 100.5q-4 76 -76 123q-90 61 -163 -6q-82 -74 -97 -285q-16 -266 21 -811q0 -59 -74 -61q-80 -2 -129 53q-25 31 -25 63q-16 381 -8 723z" />
<glyph unicode="&#xe0;" horiz-adv-x="802" d="M19 324.5q1 109.5 30 218t78 186.5q78 123 192.5 150.5t198.5 -52.5q20 39 79.5 58.5t111 8.5t51.5 -52q-10 -117 -14.5 -219.5t-3.5 -163t2 -186.5t1 -216q0 -55 -79 -53q-84 0 -127 51q-20 25 -19 51q-2 33 -4 72q-115 -201 -283 -162q-106 25 -160.5 112t-53.5 196.5z M248 322q14 -127 94 -123q47 4 84 50t55.5 112.5t24.5 135t-9 122t-48 67.5q-88 37 -154 -98q-61 -129 -47 -266zM275.5 1182.5q11.5 25.5 38 33t61.5 -11.5q72 -45 170 -147q33 -29 30.5 -54.5t-61.5 -13.5q-29 6 -75 24.5t-97.5 51t-65.5 63.5q-12 29 -0.5 54.5z" />
<glyph unicode="&#xe1;" horiz-adv-x="802" d="M24.5 413q8.5 91 36 173t66.5 143q78 123 192.5 150.5t198.5 -52.5q20 39 79.5 58.5t111 8.5t51.5 -52q-10 -117 -14.5 -219.5t-3.5 -163t2 -186.5t1 -216q0 -55 -79 -53q-84 0 -127 51q-20 25 -19 51q-2 25 -4 72q-115 -201 -283 -162q-86 18 -138 81t-65.5 144t-5 172z M248 322q14 -127 94 -123q57 4 100 73.5t57.5 155.5t2.5 163t-53 95q-88 37 -154 -98q-61 -129 -47 -266zM356.5 1002.5q-2.5 25.5 28.5 54.5q98 102 172 147q25 16 48.5 14.5t36.5 -15t18.5 -33t-5.5 -42.5q-23 -45 -103.5 -86t-133.5 -53q-59 -12 -61.5 13.5z" />
<glyph unicode="&#xe2;" horiz-adv-x="802" d="M24.5 413q8.5 91 36 173t66.5 143q78 123 192.5 150.5t198.5 -52.5q20 39 79.5 58.5t111 8.5t51.5 -52q-10 -117 -14.5 -219.5t-3.5 -163t2 -186.5t1 -216q0 -55 -79 -53q-84 0 -127 51q-20 25 -19 51q-2 25 -4 72q-115 -201 -283 -162q-86 18 -138 81t-65.5 144t-5 172z M248 322q14 -127 94 -123q76 6 123 116.5t43 229t-59 141.5q-88 37 -154 -98q-61 -129 -47 -266zM256 1030q6 10 18 21q31 29 94.5 98.5t94.5 97.5q14 16 34.5 13t28.5 -19q18 -25 40 -55.5t34 -47t34.5 -45t55.5 -63.5q37 -43 -6 -74q-47 -31 -96 0q-14 10 -27 23 q-25 29 -42 50.5t-26.5 32.5t-17.5 21l-106 -118q-47 -39 -97 -7q-43 31 -16 72z" />
<glyph unicode="&#xe3;" horiz-adv-x="800" d="M19 324.5q1 109.5 30 218t78 186.5q78 123 192.5 150.5t198.5 -52.5q20 39 79.5 58.5t111 8.5t51.5 -52q-10 -117 -14.5 -219.5t-3.5 -163t2 -186.5t1 -216q0 -55 -79 -53q-84 0 -127 51q-20 25 -19 51q-2 23 -4 72q-115 -201 -283 -162q-106 25 -160.5 112t-53.5 196.5z M170 1110q-4 33 14 61q8 14 23 15q6 0 32.5 -25.5t65.5 -30.5q53 -4 95 8.5t67 30t70 32.5t102 13q82 -4 122 -67.5t7 -124.5q-8 -14 -23 -8q-4 2 -34.5 27.5t-73.5 33.5q-53 8 -96 -2t-66.5 -28.5t-68 -36t-97.5 -19.5q-39 0 -70.5 16.5t-48 44t-20.5 60.5zM248 322 q14 -127 94 -123q76 6 123 116.5t43 229.5t-59 141q-88 37 -154 -98q-61 -129 -47 -266z" />
<glyph unicode="&#xe4;" horiz-adv-x="802" d="M19 324.5q1 109.5 30 218t78 186.5q78 123 192.5 150.5t198.5 -52.5q20 39 79.5 58.5t111 8.5t51.5 -52q-10 -117 -14.5 -219.5t-3.5 -163t2 -186.5t1 -216q0 -55 -79 -53q-84 0 -127 51q-20 25 -19 51q-2 8 -4 72q-115 -201 -283 -162q-106 25 -160.5 112t-53.5 196.5z M172 1110q2 51 44 85t98.5 31t94 -42t34.5 -90.5t-44 -85t-97 -29.5t-94 42t-36 89zM248 322q14 -127 94 -123q76 6 123 116.5t43 229.5t-59 141q-88 37 -154 -98q-61 -129 -47 -266zM543 1110q2 51 44 85t97 30q37 -2 67.5 -20.5t47 -47.5t16.5 -63q-4 -51 -45 -85 t-97.5 -30t-94 42t-35.5 89z" />
<glyph unicode="&#xe5;" horiz-adv-x="802" d="M24.5 413q8.5 91 36 173t66.5 143q78 123 192.5 150.5t198.5 -52.5q20 39 79.5 58.5t111 8.5t51.5 -52q-10 -117 -14.5 -219.5t-3.5 -163t2 -186.5t1 -216q0 -55 -79 -53q-84 0 -127 51q-20 25 -19 51q-2 25 -4 72q-115 -201 -283 -162q-86 18 -138 81t-65.5 144t-5 172z M248 322q14 -127 94 -123q57 4 100 73.5t57.5 155.5t2 163t-52.5 95q-88 37 -154 -98q-61 -129 -47 -266zM291 1102q0 47 23.5 87t63.5 62.5t85 22.5q72 0 123 -50t51 -122t-51 -122t-122 -50t-122 50t-51 122zM375 1102q0 -25 12 -45.5t32.5 -31.5t43.5 -11q37 0 63.5 25.5 t26.5 62.5t-26.5 62.5t-62.5 25.5t-62.5 -25.5t-26.5 -62.5z" />
<glyph unicode="&#xe6;" horiz-adv-x="1228" d="M24.5 413q8.5 91 36 173t66.5 143q78 123 192.5 150.5t198.5 -52.5q31 55 128 67.5t112 -38.5q84 35 166 34t149 -30q121 -55 137 -172q12 -100 -49 -175t-169.5 -98.5t-248.5 13.5v-10v-35q6 -82 56.5 -137.5t132.5 -46.5q43 6 87 37.5t68 76.5q10 25 34 29t38 -20 q12 -29 12 -68t-25.5 -84t-62 -82t-97 -62.5t-132.5 -25.5q-68 0 -125 20q-33 -18 -80 -16t-89 31.5t-40 70.5q-2 20 -4 72q-115 -201 -283 -162q-86 18 -138 81t-65.5 144t-5 172zM248 322q14 -127 94 -123q57 4 99 73.5t57.5 155.5t3 163t-52.5 95q-88 37 -154 -98 q-61 -129 -47 -266zM743 512q51 -10 120 9.5t106 51.5q39 35 48 79t-20 71q-51 37 -106 9.5t-99.5 -94.5t-48.5 -126z" />
<glyph unicode="&#xe7;" horiz-adv-x="747" d="M25.5 476.5q15.5 105.5 64.5 189.5q45 74 111.5 126t135.5 73.5t137.5 20.5t123.5 -24q84 -37 113.5 -115.5t7 -151.5t-69.5 -103q-25 -18 -57.5 -24.5t-62 -0.5t-54 22.5t-37 49t-6.5 75.5q102 12 121 66q16 41 -25 61q-66 31 -153 -59q-6 -6 -13 -12 q-49 -55 -74.5 -141.5t-21.5 -164t54.5 -128t138.5 -35.5q43 6 88 37.5t69 76.5q10 25 35 29t39 -18q12 -29 12 -68t-24.5 -83t-60 -82t-96 -63.5t-130.5 -29.5l-6 -43q61 -4 94 -45q23 -27 25 -64q2 -33 -15 -67q-14 -33 -54 -57.5t-85 -21.5t-65 48q98 10 127 70 q6 12 4 22q0 8 -4 15q-16 18 -72 10q-8 -2 -14 0q-18 2 -28.5 16.5t-8.5 32.5l14 90q-111 18 -181.5 93t-91 173.5t-5 204z" />
<glyph unicode="&#xe8;" horiz-adv-x="747" d="M20 365q-6 84 13.5 172t58.5 155q43 74 108.5 121t134 63.5t134.5 12.5t121 -29q121 -55 137 -172q14 -100 -48.5 -175t-171 -98.5t-247.5 13.5q-8 -94 43 -166t148 -63q41 6 85 37.5t68 76.5q10 25 34 29t38 -20q12 -29 12 -68t-25.5 -84t-62.5 -82t-97.5 -62.5 t-131.5 -25.5q-80 0 -145.5 28.5t-108.5 80t-67 116t-30 140.5zM240 1128q-20 45 14.5 76t83.5 0q74 -45 172 -147q31 -29 29 -54.5t-62 -13.5q-29 6 -74 24.5t-96 51t-67 63.5zM260 512q35 -6 79 1t84 23.5t62 36.5q41 35 49.5 79t-20.5 71q-51 37 -106.5 9.5t-99.5 -94.5 t-48 -126z" />
<glyph unicode="&#xe9;" horiz-adv-x="747" d="M20 365q-6 84 13.5 172t58.5 155q43 74 108.5 121t134 63.5t134.5 12.5t121 -29q121 -55 137 -172q14 -100 -48.5 -175t-171 -98.5t-247.5 13.5q-8 -94 43 -166t148 -63q41 6 85 37.5t68 76.5q10 25 34 29t38 -20q12 -29 12 -68t-25.5 -84t-62.5 -82t-97.5 -62.5 t-131.5 -25.5q-80 0 -145.5 28.5t-108.5 80t-67 116t-30 140.5zM260 512q27 -4 58.5 -1t62.5 11t59.5 22.5t44.5 28.5q41 35 49.5 79t-20.5 71q-51 37 -106.5 9.5t-99.5 -94.5t-48 -126zM261.5 1002.5q-3.5 25.5 29.5 54.5q98 102 172 147q49 31 84 0.5t12 -76.5 q-20 -45 -102 -86t-133 -53q-59 -12 -62.5 13.5z" />
<glyph unicode="&#xea;" horiz-adv-x="747" d="M20 365q-6 84 13.5 172t58.5 155q43 74 108.5 121t134 63.5t134.5 12.5t121 -29q121 -55 137 -172q14 -100 -48.5 -175t-171 -98.5t-247.5 13.5q-8 -94 43 -166t148 -63q41 6 85 37.5t68 76.5q10 25 34 29t38 -20q12 -29 12 -68t-25.5 -84t-62.5 -82t-97.5 -62.5 t-131.5 -25.5q-80 0 -145.5 28.5t-108.5 80t-67 116t-30 140.5zM207 1030q6 10 18 21q33 29 95.5 98.5t95.5 97.5q14 16 34.5 13t28.5 -19q16 -25 39 -55.5t34 -47t34.5 -45t56.5 -63.5q37 -43 -8 -74t-96 0q-14 10 -25 23q-33 37 -55.5 65.5t-30.5 38.5l-109 -118 q-45 -39 -94 -7q-45 31 -18 72zM260 512q35 -6 79 1t84 23.5t62 36.5q41 35 49.5 79t-20.5 71q-51 37 -106.5 9.5t-99.5 -94.5t-48 -126z" />
<glyph unicode="&#xeb;" horiz-adv-x="747" d="M20 365q-6 84 13.5 172t58.5 155q43 74 108.5 121t134 63.5t134.5 12.5t121 -29q121 -55 137 -172q14 -100 -48.5 -175t-171 -98.5t-247.5 13.5q-8 -94 43 -166t148 -63q41 6 85 37.5t68 76.5q10 25 34 29t38 -20q12 -29 12 -68t-25.5 -84t-62.5 -82t-97.5 -62.5 t-131.5 -25.5q-80 0 -145.5 28.5t-108.5 80t-67 116t-30 140.5zM124 1110q3 51 44 85t98 30q37 -2 68 -20.5t47 -47t14 -63.5q-2 -51 -44 -85t-98 -30t-94 42t-35 89zM260 512q35 -6 79 1t84 23.5t62 36.5q41 35 49.5 79t-20.5 71q-51 37 -106.5 9.5t-99.5 -94.5t-48 -126z M496 1110q2 51 44 85t97 30q37 -2 67.5 -20.5t47 -47.5t15.5 -62.5t-21.5 -61t-52 -42t-68.5 -12.5q-55 4 -93 42t-36 89z" />
<glyph unicode="&#xec;" horiz-adv-x="342" d="M4 1128q-20 45 14.5 76t83.5 0q74 -45 170 -147q33 -29 31 -54.5t-61 -13.5q-29 6 -75 24.5t-96.5 51t-66.5 63.5zM47 795q-2 47 60.5 78.5t127 23.5t64.5 -55q-10 -117 -14 -219.5t-4 -163t2 -186.5t2 -216q0 -55 -80 -53q-84 0 -129 51q-21 24 -19 51q-16 557 -10 689z " />
<glyph unicode="&#xed;" horiz-adv-x="339" d="M47 795q-2 47 60.5 78.5t127 23.5t64.5 -55q-10 -117 -14 -219.5t-4 -163t2 -186.5t2 -216q0 -55 -80 -53q-84 0 -129 51q-19 24 -19 51q-16 557 -10 689zM51.5 1002.5q-2.5 25.5 28.5 54.5q98 102 172 147q49 31 84 0.5t14 -76.5q-16 -31 -67.5 -63.5t-96.5 -51 t-73 -24.5q-59 -12 -61.5 13.5z" />
<glyph unicode="&#xee;" horiz-adv-x="342" d="M-37 1030q6 10 19 21q33 29 95 98.5t95 97.5q14 16 34.5 13t29.5 -19q16 -25 38.5 -55.5t33.5 -47t35 -45t56 -63.5q37 -43 -8 -74t-96 0q-14 10 -25 23q-33 37 -55.5 65.5t-30.5 38.5l-108 -118q-45 -39 -94 -7q-45 31 -19 72zM49 795q-2 47 60.5 78.5t126 23.5 t63.5 -55q-8 -117 -12 -219.5t-4 -164t1 -186.5t3 -215q0 -55 -80 -53q-84 0 -129 51q-20 25 -19 51q-16 558 -10 689z" />
<glyph unicode="&#xef;" horiz-adv-x="339" d="M-131 1110q2 51 44 85t97 30q37 -2 68 -20.5t47 -47t16 -63.5q-4 -51 -45 -85t-98 -30q-27 2 -51.5 13.5t-42 28.5t-27.5 40.5t-8 48.5zM49 795q-2 47 60.5 78.5t126 23.5t63.5 -55q-10 -117 -13 -219.5t-3 -163t1 -186.5t1 -216q0 -55 -78 -53q-86 0 -129 51 q-20 25 -19 51q-16 558 -10 689zM241 1110q3 51 44 85t97 31t94 -42t36 -90q-2 -33 -21.5 -60.5t-51 -42t-68.5 -12.5q-57 4 -95 42t-35 89z" />
<glyph unicode="&#xf0;" horiz-adv-x="794" d="M17 324.5q1 109.5 30 218t78 186.5q76 123 188.5 151.5t196.5 -44.5q2 41 4 84l-100 -23q-51 -8 -60 47q-8 59 39 94q18 16 41 19l86 14l2 16q-4 47 59.5 79t127 24t63.5 -55v-19l29 4q63 14 98 -41q29 -49 -10 -71q-10 -6 -25 -9l-104 -24q-45 -594 -21 -918 q0 -53 -77 -53q-84 -2 -130 49q-23 25 -20 53q-2 31 -2 62q-117 -190 -277 -152q-109 25 -163 112t-53 196.5zM246 319q18 -122 96 -120q63 4 106.5 86t55.5 188v98q-10 96 -58 115q-88 39 -153 -98q-61 -131 -47 -269z" />
<glyph unicode="&#xf1;" horiz-adv-x="786" d="M49 795q-4 47 59.5 78.5t127 23.5t63.5 -55q-4 -47 -6 -88q76 137 180 135q88 -2 147.5 -48t83 -119t37 -164t8 -182t-5.5 -175v-144q0 -53 -77 -53q-82 -2 -129 51q-23 23 -21 51q0 10 2 87t2 162t-4 174t-22.5 147.5t-49.5 60.5q-84 2 -161 -270q0 -57 1 -187t1 -223 q0 -55 -80 -53q-84 0 -127 51q-20 25 -19 51q-16 557 -10 689zM59 1171q8 14 25 15q4 0 30.5 -26t65.5 -30q53 -4 95 8.5t67 30t70 33t102 12.5q82 -4 122 -67.5t7 -124.5q-6 -14 -22 -8q-4 2 -35 27.5t-72 33.5q-55 8 -97 -2t-66.5 -28.5t-68.5 -36t-98 -19.5 q-78 -2 -118.5 60.5t-6.5 121.5z" />
<glyph unicode="&#xf2;" horiz-adv-x="741" d="M22.5 427q8.5 97 49.5 187.5t97 159t138 101.5t170 10q129 -31 193.5 -141.5t50.5 -244.5t-69.5 -258t-168 -194t-241.5 -39q-86 20 -141.5 85t-71 151t-7 183zM220 352q5 -119 61 -141q90 -37 153 98q63 133 47 271q-16 120 -94 118q-76 -4 -124 -115.5t-43 -230.5z M241 1182.5q11 25.5 37.5 33t61.5 -11.5q74 -45 172 -147q33 -29 29.5 -54.5t-62.5 -13.5q-29 6 -74 24.5t-96 51.5t-67 63q-12 29 -1 54.5z" />
<glyph unicode="&#xf3;" horiz-adv-x="741" d="M22.5 427q8.5 97 49.5 187.5t97 159t138 101.5t170 10q129 -31 193.5 -141.5t50.5 -244.5t-69.5 -258t-168 -194t-241.5 -39q-86 20 -141.5 85t-71 151t-7 183zM220 352q5 -119 61 -141q90 -37 153 98q63 133 47 271q-16 120 -94 118q-76 -4 -124 -115.5t-43 -230.5z M372 1002.5q-3 25.5 29 54.5q98 102 170 147q49 31 84 0.5t15 -76.5q-14 -31 -65.5 -63.5t-96.5 -51t-76 -24.5q-57 -12 -60 13.5z" />
<glyph unicode="&#xf4;" horiz-adv-x="741" d="M22.5 427q8.5 97 49.5 187.5t97 159t138 101.5t170 10q184 -43 232 -242q45 -188 -50 -387q-92 -193 -249 -244q-80 -25 -167 -4t-142.5 85.5t-71 150.5t-7 183zM186 1030q6 10 19 21q31 29 94 98.5t96 97.5q14 16 34 13t30 -19q16 -25 38.5 -55.5t34 -47t35 -45 t56.5 -63.5q35 -43 -9 -74q-47 -31 -96 0q-14 11 -24 23q-35 37 -57.5 65.5t-30.5 38.5l-107 -118q-47 -39 -94 -7q-45 31 -19 72zM220 352q5 -119 61 -141q90 -37 153 98q63 133 47 271q-16 120 -94 118q-76 -4 -124 -115.5t-43 -230.5z" />
<glyph unicode="&#xf5;" horiz-adv-x="741" d="M22.5 427q8.5 97 49.5 187.5t97 159t138 101.5t170 10q129 -31 193.5 -141.5t50.5 -244.5t-69.5 -258t-168 -194t-241.5 -39q-86 20 -141.5 85t-71 151t-7 183zM98 1089.5q-8 40.5 11 81.5q8 14 24 15q4 0 31.5 -26t64.5 -30q53 -4 95.5 8.5t67 30t69.5 33t102 12.5 q82 -4 122 -67.5t9 -124.5q-8 -14 -24 -8q-4 2 -35 27.5t-72 33.5q-53 6 -81.5 1t-57.5 -18.5t-50.5 -27.5t-58 -26.5t-82.5 -14.5q-51 0 -89 30t-46 70.5zM220 352q5 -119 61 -141q90 -37 153 98q63 133 47 271q-16 120 -94 118q-76 -4 -124 -115.5t-43 -230.5z" />
<glyph unicode="&#xf6;" horiz-adv-x="741" d="M22.5 427q8.5 97 49.5 187.5t97 159t138 101.5t170 10q184 -43 232 -242q45 -188 -50 -387q-92 -193 -249 -244q-80 -25 -167 -4t-142.5 85.5t-71 150.5t-7 183zM109.5 1110q3.5 51 44.5 85t97 31t94 -42t36 -90.5t-44 -85t-98.5 -29.5t-94.5 42t-34.5 89zM220 352 q5 -119 61 -141q90 -37 153 98q63 133 47 271q-16 120 -94 118q-76 -4 -124 -115.5t-43 -230.5zM481 1110q2 51 43 85t99 30q37 -2 67.5 -20.5t47 -47t14.5 -63.5q-2 -51 -44 -85t-98 -30q-29 2 -53.5 13.5t-41.5 28.5t-26.5 40.5t-7.5 48.5z" />
<glyph unicode="&#xf7;" horiz-adv-x="665" d="M-4 541q2 53 57 84q31 16 66 14l438 -18q76 0 105 -56q27 -47 -15 -67q-16 -10 -41 -9l-551 -4q-61 2 -59 56zM198 302q3 50 44 84t97 31t94 -41t36 -89t-44 -85t-98.5 -31t-94 42t-34.5 89zM198 838.5q3 50.5 44 84t97 30.5t94 -42t36 -89t-44 -83.5t-98.5 -30.5 t-94 41.5t-34.5 89z" />
<glyph unicode="&#xf8;" horiz-adv-x="749" d="M28.5 275.5q-12.5 89.5 2 180.5t54.5 178t96.5 149.5t135 92t164.5 9.5q14 -2 31 -8l16 26q25 55 105 55q68 0 76 -38q4 -14 -4 -31q-29 -43 -66 -96q53 -61 73.5 -152.5t9.5 -185t-52 -184.5t-100.5 -157.5t-144.5 -97t-179 -8.5q-33 8 -62 23q-16 -33 -28 -64 q-27 -51 -76 -26q-47 25 -41 77q2 18 12 35q14 33 33 70q-43 63 -55.5 152.5zM227 397q70 125 176 301h-12q-70 -4 -114 -96t-50 -205zM276 215q4 -2 9 -4q59 -25 109 30.5t73.5 145.5t19.5 174q-131 -201 -211 -346z" />
<glyph unicode="&#xf9;" horiz-adv-x="772" d="M35 594q2 53 6 141q2 18 2 27q-2 47 60.5 76.5t127 22.5t64.5 -52l-5 -51t-9.5 -97.5t-8.5 -116t-4 -126t3 -109.5t15.5 -83.5t32.5 -30.5q78 -4 164 172q-8 313 -4 428q-2 47 61.5 78.5t127 23.5t63.5 -55q-10 -117 -14 -219.5t-4 -163t2 -186.5t2 -216q0 -55 -80 -53 q-84 0 -129 51q-18 25 -19 51v16.5v20t-2 19.5q-51 -86 -101 -119t-107 -31q-66 4 -113 37q-43 31 -73 96.5t-41 130t-15 165t-2 153.5zM197 1128q-20 45 14.5 76t83.5 0q72 -45 170 -147q33 -29 30.5 -54.5t-61.5 -13.5q-29 6 -75 24.5t-97 51.5t-65 63z" />
<glyph unicode="&#xfa;" horiz-adv-x="778" d="M35 594q2 53 6 141q2 18 2 27q-2 47 60.5 76.5t127 22.5t64.5 -52l-5 -51t-9.5 -97.5t-8.5 -116t-4 -126t3 -109.5t15.5 -83.5t32.5 -30.5q80 -4 168 180q-8 307 -4 420q-2 47 61.5 78.5t127 23.5t63.5 -55q-10 -117 -14 -219.5t-4 -163t2 -186.5t2 -216q0 -55 -80 -53 q-84 0 -127 51q-20 25 -20 51v62q-53 -90 -104.5 -124t-110.5 -32q-66 4 -113 37q-43 31 -73 96.5t-41 130t-15 165t-2 153.5zM310.5 1002.5q-3.5 25.5 29.5 54.5q98 102 172 147q47 31 82 0.5t14 -76.5q-20 -45 -102 -86t-135 -53q-57 -12 -60.5 13.5z" />
<glyph unicode="&#xfb;" horiz-adv-x="780" d="M35 594q2 53 6 141q2 18 2 27q-2 47 60.5 76.5t127 22.5t64.5 -52l-5 -51t-9.5 -97.5t-8.5 -116t-4 -126t3 -109.5t16.5 -83.5t31.5 -30.5q82 -4 170 186q-8 301 -2 414q-2 47 60.5 78.5t126 23.5t63.5 -55q-8 -117 -12 -219.5t-4 -163t2 -186.5t2 -216q0 -55 -80 -53 q-84 0 -129 51q-20 25 -18 51q0 16 -2 68q-53 -94 -105.5 -129t-111.5 -33q-66 4 -113 37q-43 31 -73 96.5t-41 130t-15 165t-2 153.5zM166 1030q6 10 18 21q27 25 62 62.5t68.5 74.5t60.5 59q14 16 34.5 13t28.5 -19q16 -25 39 -55.5t34 -47t34.5 -45t56.5 -63.5 q37 -43 -8 -74t-96 0q-14 10 -25 23q-33 37 -55.5 65.5t-30.5 38.5l-108 -118q-45 -39 -95 -7q-45 31 -18 72z" />
<glyph unicode="&#xfc;" horiz-adv-x="774" d="M35 594q2 53 6 141q2 18 2 27q-2 47 60.5 76.5t127 22.5t64.5 -52l-5 -51t-9.5 -97.5t-8.5 -116t-4 -126t3 -109.5t15.5 -83.5t32.5 -30.5q80 -4 164 174q-8 311 -2 426q-2 47 60.5 78.5t126 23.5t63.5 -55q-10 -117 -13 -219.5t-3 -163t1 -186.5t1 -216q0 -55 -78 -53 q-86 0 -129 51q-20 25 -18 51q-2 16 -3 56q-51 -86 -101 -119t-109 -31q-66 4 -113 37q-43 31 -73 96.5t-41 130t-15 165t-2 153.5zM78 1110q2 51 44 85t98 31t94 -42t36 -90.5t-44 -85t-97 -29.5q-29 2 -53.5 13.5t-42 28.5t-26.5 40.5t-9 48.5zM449.5 1110q3.5 51 44.5 85 t97 31t94 -42t36 -90.5t-44 -85t-98.5 -29.5t-94.5 42t-34.5 89z" />
<glyph unicode="&#xfd;" horiz-adv-x="780" d="M35 594q2 53 6 141q2 6 2 10.5v8.5v8q-2 47 60.5 76.5t127 22.5t64.5 -52l-5 -51t-9.5 -97.5t-8.5 -116t-4 -126t3 -109.5t16.5 -83.5t31.5 -30.5q80 -4 166 178q0 80 -1 184.5t-1 148.5v91q-2 59 88 90q94 31 144 -4q18 -16 20 -39q-4 -61 -7 -206.5t-8 -325t-11 -304.5 q-12 -205 -93 -316.5t-239 -103.5q-104 4 -178 74t-56 164q6 31 23.5 58.5t43.5 45t54.5 22.5t61 -9.5t59.5 -48.5q-35 -41 -42 -79t4 -57.5t34 -23.5q25 -2 41 13t25.5 57t14.5 82t11 114q4 66 8 150q-49 -80 -98 -110t-104 -28q-66 4 -113 37q-43 31 -73 96.5t-41 130 t-15 165t-2 153.5zM294 1002.5q-3 25.5 30 54.5q98 102 172 147q47 31 81.5 0.5t14.5 -76.5q-20 -45 -102.5 -86t-133.5 -53q-59 -12 -62 13.5z" />
<glyph unicode="&#xfe;" horiz-adv-x="772" d="M59 55q-20 442 11 1092q-2 68 88 102q90 33 139 -2q25 -16 25 -45q-2 -14 -8.5 -109.5t-10.5 -144.5q45 2 90 0q260 -18 342 -196q66 -143 -10 -299q-74 -150 -229 -189q-102 -27 -220 12q2 -145 11 -276q0 -59 -74 -61q-80 -2 -129 53q-25 29 -25 63zM279 469 q129 -57 213 35q68 72 47 162q-25 104 -152 114q-45 4 -94 -4q-10 -170 -14 -307z" />
<glyph unicode="&#xff;" horiz-adv-x="782" d="M35 594q2 53 6 141q2 18 2 27q-2 47 60.5 76.5t127 22.5t64.5 -52q0 -4 -3 -36t-7 -65.5t-7.5 -83t-6.5 -95.5t-4 -96t2 -91t8.5 -75t16.5 -53t25 -19q82 -4 170 184q0 80 -1 182.5t-2 146.5t1 89q-2 47 60.5 78.5t127 23.5t64.5 -55q-4 -61 -8 -206.5t-8 -325 t-10 -304.5q-12 -205 -93 -316.5t-239 -103.5q-104 4 -178 74t-56 164q10 53 49.5 91t93.5 36t97 -59q-33 -41 -41 -79t4 -57.5t33 -23.5q18 -2 30.5 4t21.5 24.5t15.5 39t11.5 56.5t8 65.5t5 76.5q6 68 10 156q-51 -82 -100 -114t-106 -30q-66 4 -113 37q-43 31 -73 96.5 t-41 130t-15 165t-2 153.5zM59 1110q2 51 44 85t98 30q37 -2 67.5 -20.5t48 -48.5t15.5 -62q-2 -51 -44 -85t-98.5 -30t-94.5 42t-36 89zM431 1110q3 51 44 85t97.5 31t94.5 -42t35.5 -90.5t-44.5 -85t-98 -29.5t-94 42t-35 89z" />
<glyph unicode="&#x152;" horiz-adv-x="1337" d="M20.5 372q-10.5 130 22.5 270t98.5 252t169 173t219.5 35q12 12 25 16q31 25 170 14.5t276.5 -25.5t255.5 11q61 0 66 -57q4 -63 -51 -107q-33 -23 -70 -22q-76 -2 -102.5 -2t-118.5 6t-133 8q-12 -160 -21 -256q137 -6 332 2q27 0 44.5 -37t11 -72.5t-34.5 -35.5 q-115 -8 -361 -8v-7q-10 -231 21 -305q23 -47 102.5 -39.5t163.5 37t127 58.5q45 29 76 -29q37 -66 -4 -125q-25 -39 -78 -55q-84 -33 -188.5 -55.5t-217 -12.5t-157.5 70q-18 23 -33 55q-158 -170 -357 -119q-113 29 -178 130.5t-75.5 231.5zM252 483.5 q-6 -98.5 11.5 -175.5t53.5 -95q100 -45 172 135t60.5 377.5t-111.5 189.5q-51 -4 -94 -71.5t-64.5 -164.5t-27.5 -195.5z" />
<glyph unicode="&#x153;" horiz-adv-x="1204" d="M22.5 427q8.5 97 49.5 187.5t97 159t138 101t170 10.5q96 -23 156 -90q61 51 138 75.5t146.5 20.5t129.5 -31q121 -55 137 -172q14 -100 -48.5 -175t-171 -98.5t-247.5 13.5q-8 -94 43 -166t145 -63q43 6 87 37.5t69 76.5q10 25 33.5 29t38.5 -20q12 -29 12 -68 t-25.5 -84t-62.5 -82t-97.5 -62.5t-132.5 -25.5q-164 -2 -260 117q-141 -152 -325 -109q-86 20 -141.5 85t-71 151t-7 183zM220.5 352.5q5.5 -118.5 60.5 -141.5q70 -29 124 48t72 194q2 23 4 45q8 88 -16.5 146t-77.5 54q-76 -4 -124 -115.5t-42.5 -230zM721 512 q51 -8 117.5 11.5t103.5 49.5q39 35 48 79t-19 71q-61 53 -144 -16.5t-106 -165.5q2 -16 0 -29z" />
<glyph unicode="&#x178;" horiz-adv-x="720" d="M-4 987q-8 45 53.5 84t118.5 37t72 -41q10 -180 120 -430q180 293 222 424q6 25 47 28t76.5 -23t27.5 -75q-29 -160 -299 -567q-6 -201 8 -369q0 -45 -57 -52t-114.5 22.5t-55.5 74.5q-8 139 -8 291l-4 8q-55 100 -100.5 209t-73 208t-33.5 171zM72 1321q2 51 44 85 t97 30q37 -2 67.5 -20.5t47 -47t16.5 -63.5q-4 -49 -45 -83t-97.5 -31t-94 41t-35.5 89zM442 1321q2 51 44 85t98.5 31t94.5 -42t36 -89.5t-44.5 -84t-97.5 -31.5q-37 2 -67.5 20.5t-48 48t-15.5 62.5z" />
<glyph unicode="&#x2000;" horiz-adv-x="743" />
<glyph unicode="&#x2001;" horiz-adv-x="1487" />
<glyph unicode="&#x2002;" horiz-adv-x="743" />
<glyph unicode="&#x2003;" horiz-adv-x="1487" />
<glyph unicode="&#x2004;" horiz-adv-x="495" />
<glyph unicode="&#x2005;" horiz-adv-x="371" />
<glyph unicode="&#x2006;" horiz-adv-x="247" />
<glyph unicode="&#x2007;" horiz-adv-x="247" />
<glyph unicode="&#x2008;" horiz-adv-x="185" />
<glyph unicode="&#x2009;" horiz-adv-x="297" />
<glyph unicode="&#x200a;" horiz-adv-x="82" />
<glyph unicode="&#x2010;" horiz-adv-x="567" d="M8 543q4 57 53 86q23 12 48 10l356 -18q61 0 86 -56q23 -51 -16 -71q-12 -6 -29 -5l-449 -4q-51 2 -49 58z" />
<glyph unicode="&#x2011;" horiz-adv-x="567" d="M8 543q4 57 53 86q23 12 48 10l356 -18q61 0 86 -56q23 -51 -16 -71q-12 -6 -29 -5l-449 -4q-51 2 -49 58z" />
<glyph unicode="&#x2012;" horiz-adv-x="567" d="M8 543q4 57 53 86q23 12 48 10l356 -18q61 0 86 -56q23 -51 -16 -71q-12 -6 -29 -5l-449 -4q-51 2 -49 58z" />
<glyph unicode="&#x2013;" horiz-adv-x="663" d="M8 543q4 57 53 86q23 12 48 10h34q180 2 252 -4q80 -8 168 -14q61 0 86 -56q23 -51 -16 -71q-12 -6 -31 -5q-113 8 -168 10.5t-82.5 1.5t-116 -6.5t-178.5 -9.5q-51 2 -49 58z" />
<glyph unicode="&#x2014;" horiz-adv-x="858" d="M8 543q4 57 53 86q23 12 48 10q231 2 332.5 0t314.5 -18q61 0 86 -56q23 -51 -17 -71q-12 -6 -28 -5q-63 4 -113.5 7.5t-105 3.5t-87 1t-97 -1t-93.5 -3t-116 -5.5t-128 -6.5q-51 2 -49 58z" />
<glyph unicode="&#x2018;" horiz-adv-x="229" d="M21.5 1003.5q11.5 59.5 52.5 116t86 66.5q31 8 41 -5.5t-6 -47.5q-49 -84 6 -170q31 -47 -17 -91q-49 -45 -110 -10q-23 12 -39 37q-25 45 -13.5 104.5z" />
<glyph unicode="&#x2019;" horiz-adv-x="227" d="M26.5 857q-10.5 13 8.5 46q47 86 -8 172q-31 47 16 90q51 45 111 11q23 -12 41 -37q25 -45 12.5 -104.5t-53.5 -116t-86 -66.5q-31 -8 -41.5 5z" />
<glyph unicode="&#x201c;" horiz-adv-x="456" d="M21.5 1003.5q11.5 59.5 52.5 116t86 66.5q31 8 41 -5.5t-6 -47.5q-49 -84 6 -170q31 -47 -17 -91q-49 -45 -110 -10q-23 12 -39 37q-25 45 -13.5 104.5zM244.5 974q5.5 46 25 90t52 79t65.5 43q31 8 41 -5.5t-6 -47.5q-49 -84 6 -170q31 -47 -16 -91q-49 -45 -111 -10 q-23 12 -39 37q-23 29 -17.5 75z" />
<glyph unicode="&#x201d;" horiz-adv-x="454" d="M26.5 857q-10.5 13 8.5 46q47 86 -8 172q-31 47 16 90q51 45 111 11q23 -12 41 -37q25 -45 12.5 -104.5t-53.5 -116t-86 -66.5q-31 -8 -41.5 5zM254 857q-10 13 8 46q47 86 -8 172q-31 47 16 90q51 45 111 11q23 -12 41 -37q23 -29 17.5 -75t-25 -90t-52 -80t-67.5 -42 q-31 -8 -41 5z" />
<glyph unicode="&#x201e;" horiz-adv-x="446" d="M20 61q-31 49 17 91q51 47 110 12q23 -12 41 -37q25 -45 12.5 -104.5t-53.5 -116t-86 -68.5q-31 -6 -41 7.5t9 45.5q46 84 -9 170zM248 61q-31 49 16 91q51 47 111 12q23 -12 41 -37q23 -29 17.5 -75t-25 -90t-52 -80t-67.5 -44q-31 -6 -41 7.5t8 45.5q47 84 -8 170z" />
<glyph unicode="&#x2022;" horiz-adv-x="387" d="M20 430q0 72 50.5 122t122 50t122 -50t50.5 -122t-50.5 -122t-122 -50t-122 50t-50.5 122z" />
<glyph unicode="&#x2026;" horiz-adv-x="1054" d="M12 61.5q2 51.5 44 85t98.5 30.5t94.5 -42t35 -89t-44 -84t-97.5 -31t-94.5 41t-36 89.5zM392 61.5q3 51.5 44 85t97.5 30.5t94.5 -42t36 -89t-44 -84t-98.5 -31t-94.5 41t-35 89.5zM772 61.5q2 51.5 44 85t98.5 30.5t94.5 -42t34.5 -89t-44.5 -84t-97 -31t-94 41 t-36 89.5z" />
<glyph unicode="&#x202f;" horiz-adv-x="297" />
<glyph unicode="&#x205f;" horiz-adv-x="371" />
<glyph unicode="&#x20ac;" horiz-adv-x="849" d="M19 430q-5 31 7.5 60.5t34.5 27.5q37 4 72 6q-2 47 4 92q-45 -2 -90 -10q-23 0 -28 31t7.5 60.5t34.5 27.5q51 6 97 8q41 166 145.5 271.5t253.5 105.5q90 0 153.5 -44t94.5 -110q20 -49 -0.5 -78.5t-57 -25.5t-57.5 35q-43 66 -123 57q-63 -6 -110 -64.5t-72 -148.5 q33 -2 82 -6q23 2 39 -33t14 -70.5t-22 -35.5q-25 2 -70 9t-68 9q-2 -39 -2 -78q43 -4 109 -8q23 2 39 -32.5t14 -70.5t-22 -36q-25 2 -67 8t-60 8q20 -100 70.5 -162.5t125.5 -62.5q84 0 123 57q25 47 67 48t58 -33.5t-4 -85.5q-33 -66 -99.5 -109t-154.5 -43 q-174 0 -279.5 114.5t-136.5 291.5q-47 -2 -94 -11q-23 0 -28 31z" />
<glyph unicode="&#x25fc;" horiz-adv-x="921" d="M0 0v922h922v-922h-922z" />
</font>
</defs>
</svg>
